<?xml version="1.0" encoding="utf-8"?>
<!-- Generator: Adobe Illustrator 23.0.2, SVG Export Plug-In . SVG Version: 6.00 Build 0)  -->
<svg version="1.1" id="图层_1" xmlns="http://www.w3.org/2000/svg" xmlns:xlink="http://www.w3.org/1999/xlink" x="0px" y="0px"
	 viewBox="0 0 83.2 48.5" style="enable-background:new 0 0 83.2 48.5;" xml:space="preserve">
<style type="text/css">
	.st0{fill:#FFFFFF;}
	.st1{fill:#BD0034;}
	.st2{fill:#CF1124;}
	.st3{fill:#FCCD00;stroke:#000000;stroke-width:0.1;stroke-miterlimit:10;}
	.st4{fill:none;stroke:#000000;stroke-width:0.1;stroke-miterlimit:10;}
	.st5{fill:#0C02E4;stroke:#000000;stroke-width:0.1;stroke-miterlimit:10;}
	.st6{fill:#280240;stroke:#000000;stroke-width:0.1;stroke-miterlimit:10;}
	.st7{stroke:#000000;stroke-width:0.1;stroke-miterlimit:10;}
	.st8{fill:#1F0051;stroke:#000000;stroke-width:0.1;stroke-miterlimit:10;}
	.st9{fill:#FFD000;stroke:#000000;stroke-width:0.1;stroke-miterlimit:10;}
	.st10{fill:#1E02D4;stroke:#000000;stroke-width:0.1;stroke-miterlimit:10;}
	.st11{fill:#2A0037;stroke:#000000;stroke-width:0.1;stroke-miterlimit:10;}
</style>
<g id="Sark">
	<g id="England">
		<rect x="0" y="0" class="st0" width="36.6" height="19.3"/>
		<rect x="46.6" y="29.3" class="st0" width="36.6" height="19.3"/>
		<rect x="46.6" y="0" class="st0" width="36.6" height="19.3"/>
		<rect x="0" y="29.3" class="st0" width="36.6" height="19.3"/>
		<rect x="36.6" y="29.3" class="st1" width="10" height="19.3"/>
		<rect x="36.6" y="0" class="st1" width="10" height="19.3"/>
		<polygon class="st1" points="36.6,19.3 0,19.3 0,29.3 36.6,29.3 46.6,29.3 83.2,29.3 83.2,19.3 46.6,19.3 		"/>
	</g>
	<rect y="0" class="st2" width="36.7" height="19.8"/>
	<path class="st3" d="M3.7,3.6L3.7,3.1l0.3-0.4l0.2-0.2l0.2-0.2L4.6,2L5,1.8l0.6,0.1l0.1,0.2l0.2-0.3l0.3-0.2h0.4l0.1,0.2v0.3h0.3
		h0.4l0.1,0.4L7.3,3L7.1,3.3v0.3l0.2,0.2l0.2,0.2l0.3,0.3L8,4.4l0.2,0.1H9l0.4-0.3c0.1,0,0.4-0.4,0.4-0.4l0.1-0.2V2.8L10,2.6
		l0.2-0.1h0.1l0.2-0.3h0.2l0.2-0.3h0.3l0.3-0.2l0.3,0.1l0.2-0.2h0.3l0.1,0.2l0.3-0.2H13v0.2l0.5-0.1l0.1,0.1L13.7,2l0.2,0.1
		c0,0,0.2,0,0.2,0c0,0.1,0.1,0.2,0.1,0.3v0.2l0.4,0.1v0.4L14.6,3l0.3,0.1l0.2,0.1v0.3L15,3.8L14.9,4v0.1l0.2,0.1l0.4,0.1L16,4.4h1.1
		l1-0.1l1.2-0.2h0.6L22.4,4l3.5,0.1h3.2h1.2l0.3-0.3l0.1-0.3l-0.2-0.2L30.2,3h-2.5L27,3.3l-0.6,0.4l-0.3,0.2h-0.3h-0.3H25h-0.2h-0.4
		H24h-0.2h-0.4h-0.4h-0.5H22l0.1-0.4h-1.1h-4l-0.6-0.2L16.4,3V2.5L17.1,2l0.9-0.2H19h1.8c0.2,0,0.4-0.1,0.7-0.1c0,0,0.7-0.2,0.7-0.2
		h0.9l0.8,0.3l0.4,0.1l-0.2,0.2L24.7,2c0,0,0.7-0.2,0.8-0.2h0.7l0.3,0.1l-0.8,0.5l-0.6,0.2l-0.8,0.3l-1.3,0h-1.4l-1.1-0.3l-0.7-0.2
		l-1-0.1l-0.8,0h-0.5l-0.5,0.2L17,2.8L17.3,3l0.4,0.2l1.6,0.1l1.4-0.1L21.7,3h2.7l0.6-0.2l0.6-0.2l5,0l0.6,0.3l0.3,0.5l-0.1,0.4
		l-0.1,0.3v0.1h1l0.5,0.2l0.2,0.2l-0.4,0.1l-0.4-0.2h-8.4l0,0.1l0.8,0.1L25,4.9l0.6,0.3l0.7,0.5L26.8,6L27,6.3l0.1,0.1v0.1h1
		l1.2-0.6l0.3-0.1l0.4,0.2l0.1,0.1l-0.1,0.1l-0.5,0.2h-0.1h1.3l0.4,0.1v0.1l-0.7,0.2h0.9l0.3,0.1L31.5,7v0.1l-0.6,0.1l0.8,0.1
		L32,7.5v0.2l-0.6,0.1L32.1,8v0.2v0.3h-0.3l-0.3-0.2l0.2,0.2l0.1,0.2l-0.1,0.2l-0.2,0.2L31,9.2l-0.4-0.3l-0.1-0.1l-0.2,0.4l-0.5,0.1
		h-0.4l-0.2-0.2L29,9h-0.3l-0.4-0.1l-0.2-0.2V8.4l0.3-0.2L28.7,8l0.2-0.1l0.4,0.1L29.8,8h0.3L30,7.7l-0.6-0.2l-0.9-0.2h-0.4h-0.4
		l-0.5,0.1l-0.5,0.1h-0.9H25l-0.6-0.1l-0.3-0.3L24,6.9c-0.1-0.1-0.2-0.2-0.2-0.3c-0.1-0.1-0.2-0.3-0.3-0.4L23.1,6l-0.4-0.3l-0.6-0.2
		l-0.7-0.1l-0.3,0.1v0.3v0.2l0.4,0.1h1l0.5,0.1l0.2,0.2v0.3l0,0.2v0.2v0.2l0.3,0.2l0.3,0.2l0.1,0.1L24,7.9v0.2h-0.4l-0.1,0.2
		l-0.1,0.3l-0.2,0.1L23,8.8V8.7L22.5,9L22,9h-0.8L21.1,9l-0.2,0.1h-0.4L20.3,9l-0.5,0.1L19.8,9l-0.3,0.1H19l-0.2-0.2V8.8l-0.3,0.2
		H18l-0.2-0.1l-0.1-0.3l0.1-0.2V8.1h-0.3V7.9l0.3-0.3l0.4-0.1h0.4L19,7.6c0,0,0.1,0.3,0.1,0.3l0.3,0.2L20,8h0.4l0.1-0.2V7.5L19.9,7
		c-0.1-0.1-0.3-0.2-0.4-0.3c0-0.1-0.1-0.2,0-0.3l0.1-0.2l0.5-0.3c0.1-0.1,0.1-0.2,0.2-0.3V5.4h-0.4l-0.5,0.1l-0.7,0.2L18,6.1
		l-0.3,0.2l-0.5,0.3l-0.4,0.2l-0.4,0.2L16,7.2l-0.4,0.3l-0.3,0.2L15,7.7h-0.3V7.6L15,7.2L15.4,7l0.4-0.2l0.1-0.1L15.1,7l-0.4,0.2
		l-0.2,0.2l-0.1,0.2v0.8L14,8.8L13.6,9h-0.3L13,8.9h-0.1l-0.2,0.2l-0.3,0.3h-0.7l-0.3,0.1l-0.7-0.1H8.4L8.4,9.2L8.2,9.1H8L7.8,9.2
		L7.5,9.5L6.9,9.6L6.6,9.2L6.5,9L6.2,9.1H5.6L5.4,8.9V8.7l0.2-0.3l0.1-0.1L5.5,8.1V7.8l0.1-0.2l0.5-0.1l0.4,0.1l0.2,0.2l0.1,0.1
		L7,7.3l0.2-0.1l0.4,0.2l0.2,0.3L8,7.9C8.1,7.9,8.3,8,8.4,8c0.1,0,0.8-0.1,0.8-0.1l0.6-0.1l0.6-0.1l0.3-0.1c0,0,0.2,0,0.2-0.1
		s-0.1-0.2-0.1-0.2h-0.4h-0.2V7.2H9.8L9.6,7.1L9.5,7l0.1-0.3l0.2-0.2L9.6,6.4L9.4,6.5L8.9,6.8L8.3,7H7.9L7.3,6.8L7.1,6.6L7,6.4
		L6.8,6.3L6.6,6.1L6.2,5.8c-0.1,0-0.4-0.3-0.4-0.3L5.4,5.3L5.1,5L4.9,4.7L4.7,4.5L4.6,4.3l0.1-0.2l0.1-0.2L4.7,3.7H4.3L4,3.7
		L3.7,3.6z"/>
	<path class="st4" d="M4.4,2.4C4.7,2.5,5,2.7,5.2,2.9l0.2,0.5"/>
	<line class="st4" x1="5.7" y1="2.1" x2="5.7" y2="3"/>
	<polyline class="st4" points="6.7,2.2 6.5,2.6 6.4,3 	"/>
	<polyline class="st4" points="4.9,4.5 5.4,4.6 4.8,4.5 	"/>
	<polyline class="st4" points="5.1,4.9 5.7,4.9 5.8,4.8 	"/>
	<polyline class="st4" points="6.9,6.4 7.5,6.3 7.8,6.2 	"/>
	<polyline class="st4" points="9.2,4.3 8.8,4.7 8.6,5.2 8.6,5.6 8.6,5.9 8.8,6.6 8.8,6.1 9.3,5.5 9.8,5.4 9.9,5.3 	"/>
	<path class="st4" d="M8.9,5.1l0.4-0.2L8.9,5.1z"/>
	<polyline class="st4" points="8.7,5.4 9,5 9.3,4.9 	"/>
	<polyline class="st4" points="10,5.4 10.3,6 10.7,6.2 11.2,6.3 11.9,6.2 12.4,6 12.7,5.7 12.8,5.6 12.8,5.5 12.8,6.5 12.6,7.1 
		12.1,7.4 11.7,7.5 11.2,7.6 11,7.6 10.9,7.6 	"/>
	<polyline class="st4" points="11.6,6.4 11.4,6.8 11,7.1 10.8,7.4 	"/>
	<polyline class="st4" points="10.7,6.6 10.5,6.9 10.2,7.1 	"/>
	<path class="st4" d="M10,2.8l0.2,0.5l0.3,0.3l0.2,0.3l0.2,0.4L11,4.4l0.5,0.1l0.2-0.1l0.1-0.3l-0.3-0.2l-0.3-0.1V3.5
		c0,0,0.2,0,0.2-0.1c0-0.1,0-0.2,0-0.3L11.1,3l-0.3-0.2V2.6l0.4-0.1l0.3,0.2l0.1,0.2h0.2L12,2.7l0.1-0.4"/>
	<polyline class="st4" points="12.8,2.2 12.5,2.6 12.5,3 12.5,3.4 12.5,3.7 12.3,3.9 12.1,4.1 11.9,4.3 12,4.5 12.4,5 12.5,5.3 
		12.7,5.3 12.8,4.8 12.7,4.5 12.9,4.2 13.2,4.1 13.4,4.5 13.4,5.1 13.5,4.3 13.6,3.9 14,3.8 14,3.8 14.1,3.8 	"/>
	<polyline class="st4" points="12.8,3 12.6,3.2 12.8,3.3 13.1,3.3 13.2,3.3 13.4,3.3 13.9,3.2 13.6,3.2 13.5,3.1 13.5,2.8 13.4,3 
		13.1,2.9 12.6,2.9 	"/>
	<polyline class="st4" points="14.7,3.4 14.6,3.6 14.6,3.8 14.6,3.9 	"/>
	<polyline class="st4" points="14.9,4.4 15.3,4.6 15.4,4.9 15.4,5.1 15.4,5.3 15,5.2 14.7,4.8 14.7,4.7 15,5.4 15.1,5.6 15,5.9 
		14.9,6.2 14.6,6.2 14.4,6.3 14.3,6.3 14.3,6 14.3,5.8 14.3,5.5 14.3,5.5 14.1,6.3 14,6.4 13.9,6.5 13.7,6 13.6,5.9 13.7,6.6 
		13.6,6.9 13.4,7.1 13.3,7.1 	"/>
	<polyline class="st4" points="5.7,8.3 6,8.3 6.3,8.3 	"/>
	<polyline class="st4" points="6.5,8.9 6.7,8.7 6.9,8.5 	"/>
	<line class="st4" x1="8.4" y1="9.1" x2="8.4" y2="8.9"/>
	<line class="st4" x1="9.3" y1="9.2" x2="9.3" y2="8.7"/>
	<polyline class="st4" points="10,9.2 10.2,8.9 10.2,8.7 	"/>
	<polyline class="st4" points="10.7,9.1 10.8,8.9 10.8,8.7 	"/>
	<polyline class="st4" points="10.7,9.2 10.9,8.9 10.8,8.6 	"/>
	<polyline class="st4" points="11.9,9.2 11.9,8.9 11.9,8.7 	"/>
	<polyline class="st4" points="10.4,3.6 10.6,4 10.5,4.3 10.2,4.3 10.4,4.4 10.6,4.7 10.6,4.9 10.8,4.7 11,4.6 11,4.5 	"/>
	<line class="st4" x1="20.3" y1="5.6" x2="21" y2="5.5"/>
	<polyline class="st4" points="17.9,8 18.3,7.9 18.5,8 	"/>
	<polyline class="st4" points="18.1,7.5 18.6,7.7 18.6,7.8 	"/>
	<polyline class="st4" points="18.8,8.7 19,8.6 19.2,8.4 19.4,8.4 	"/>
	<polyline class="st4" points="19.7,8.9 19.9,8.7 20,8.3 	"/>
	<polyline class="st4" points="20.3,8.9 20.5,8.6 20.7,8.3 	"/>
	<polyline class="st4" points="21,8.9 21.2,8.6 21.4,8.3 21.5,8.2 	"/>
	<polyline class="st4" points="21.9,9 22,8.6 22,8.3 22.1,8.1 	"/>
	<line class="st4" x1="22.9" y1="8.6" x2="22.8" y2="8.2"/>
	<line class="st4" x1="28.7" y1="8.2" x2="29.1" y2="8.2"/>
	<polyline class="st4" points="29,8.9 29.3,8.6 29.7,8.5 29.9,8.4 	"/>
	<polyline class="st4" points="25.8,3.8 26,3.4 26.3,3.3 	"/>
	<polyline class="st4" points="25,3.8 25.2,3.5 25.6,3.3 	"/>
	<polyline class="st4" points="23.9,3.8 24.3,3.5 24.6,3.3 24.7,3.2 	"/>
	<polyline class="st4" points="22.9,3.8 23.4,3.6 23.5,3.4 23.8,3.2 	"/>
	<polyline class="st4" points="22.5,2.8 22.2,2.4 21.9,2.2 	"/>
	<line class="st4" x1="22.8" y1="2.1" x2="24" y2="2.1"/>
	<path class="st5" d="M11,4.6c0.1-0.1,0.2,0,0.8,0c0.1,0,0.1,0,0.2,0.1s0.1,0,0,0.3c0,0.2-0.1,0.4-0.2,0.6c0,0-0.1,0.1-0.1,0.1
		c-0.2,0.1-0.4,0.1-0.6,0c-0.1,0-0.1-0.1-0.1-0.1c-0.1-0.1,0-0.2,0.1-0.5S11,4.6,11,4.6z"/>
	<polyline class="st6" points="7.2,1.8 7.2,2.2 7.4,2.2 	"/>
	<polygon class="st6" points="5.7,1.5 6,1.7 6.2,1.7 6.6,1.7 6.1,1.4 	"/>
	<polygon class="st6" points="3.5,1.9 4.4,2.2 4.7,1.9 4,1.8 	"/>
	<polygon class="st6" points="3,3.8 3.3,3.2 3.7,3.1 3.7,3.5 	"/>
	<polygon class="st6" points="6.7,7 7.1,7.3 7.4,7.3 7.2,7 	"/>
	<polygon class="st6" points="5.7,7.5 5.2,7.5 4.8,7.9 5.1,7.8 5.4,7.9 	"/>
	<polygon class="st6" points="5.4,8.7 5.1,9 5,9.6 5.6,9.1 	"/>
	<polygon class="st6" points="6.6,9.3 6.8,10 6.8,10.1 7.1,9.6 	"/>
	<polygon class="st7" points="18.4,7.3 17.5,7.1 18,7.5 	"/>
	<polygon class="st7" points="17.5,7.8 17.1,8.1 16.8,8.6 16.8,8.7 17.3,8.4 17.7,8.2 	"/>
	<polygon class="st8" points="17.7,8.5 17.5,9 17.7,9.5 18,8.9 	"/>
	<polygon class="st7" points="19,9.1 19.1,9.5 19.4,9.7 19.4,9.3 19.4,9.1 	"/>
	<polygon class="st7" points="28.7,7.8 28,8 28,8.1 28.4,8.1 28.5,8.1 	"/>
	<polygon class="st7" points="28.1,8.6 27.8,8.7 27.7,9.1 27.7,9.1 27.9,9 28.4,9 	"/>
	<polygon class="st7" points="28.9,9.1 28.8,9.2 28.9,9.7 29,9.8 29.1,9.4 29.2,9.2 	"/>
	<polygon class="st7" points="31,9.2 31.1,9.5 31.4,9.8 31.4,9.5 31.4,9.2 31.4,9.1 	"/>
	<path class="st4" d="M12.3,4.6l0.4-0.1L12.3,4.6z"/>
	<line class="st4" x1="11.5" y1="3.1" x2="11.7" y2="2.9"/>
	<polygon class="st4" points="13.1,3 13.1,3.1 13.1,3.3 13.3,3.1 13.3,3 	"/>
	<polygon class="st4" points="11.3,2.6 11.2,2.9 11.4,2.8 	"/>
	<path class="st9" d="M3.5,11.4L4,11l0.4-0.2l0.1-0.4l0.7-0.3l0.4,0.2L6,10.2h0.6l0.1,0.4l0.2,0.1h0.6L7.5,11v0.2l-0.4,0.5L7,12
		l0.6,0.6l0.4,0.3c0,0,0.4-0.1,0.5,0s0.5,0,0.5,0l0.7-0.3L9.9,12l-0.1-0.4v-0.4l0.4-0.1l0.2-0.4h0.1l0.3-0.3l0.4,0.1l0.2-0.2h0.4
		l0.2-0.1h0.2l0.1,0.1l0.4-0.1H13v0.2l0.3-0.2l0.2,0.1v0.1l0.2,0.1l0.4,0.1v0.4l0.3,0.1l0.1,0.3v0.3l-0.1,0.1h0.4l0.2,0.1v0.4
		L15,12.5l-0.1,0.1l0.6,0.1l0.4,0.1h1.4l1.4-0.2l1-0.1h2.5l7.8,0.1l0.6-0.4l-0.2-0.4l-0.6-0.2l-1.7-0.1l-0.9,0.1l-0.5,0.2l-0.4,0.4
		l-0.5,0.1l-0.1-0.2l0.5-0.4l-0.6,0.6L25,12.3l0.5-0.6l-0.7,0.6l-0.7,0.1h-0.2l0.7-0.6l-1,0.6h-0.7l0.8-0.6l-0.9,0.5H22l0.1-0.5
		L20.6,12h-1.3L17.8,12l-1.1-0.1l-0.4-0.3l-0.1-0.5l0.5-0.5l1-0.3h1.3h0.9h0.7l0.8-0.2l0.9-0.2h1.1l0.5,0.3l0.2,0.1l-0.6,0.2h-0.9
		h1.5l1.1-0.3l0.9-0.1h0.4l-0.9,0.6l-0.6,0.2l-0.8,0.3h-1.5l-0.2-0.1h-0.2l-0.7-0.5l0.7,0.6h-0.9l-0.8-0.3L20,10.9l-0.5-0.1l-1-0.1
		l-1.1,0.2l-0.3,0.2l-0.1,0.2l0.2,0.3l0.4,0.1l0.5,0.1l1,0.1l0.9-0.1l0.8-0.1l0.7-0.1h1.3h1.8l0.9-0.4l1.5-0.1h2h1.4l0.7,0.1
		l0.4,0.5l0.2,0.6l-0.2,0.2V13h1l0.6,0.2l0.1,0.1h-0.1L32.2,13H32l-8.3-0.1v0.2l1.3,0.1l0.7,0.4l0.8,0.7l0.5,0.5l0.1,0.1h1.1l1-0.6
		l0.4-0.1l0.4,0.2v0.2l-0.6,0.2l0.3,0.1l0.9-0.1l0.4,0.1l-0.6,0.3h0.7l0.2-0.1l0.2,0.2l0.2,0.3l-0.7,0.1h0.7l0.4,0.3v0.3h-0.7
		l0.8,0.1l0.1,0.4l-0.2,0.2h-0.3l-0.3-0.2l0.3,0.5l-0.2,0.3L31,17.6h-0.4l-0.2-0.3l-0.3,0.3l-0.5,0.2h-0.5L29,17.6l-0.1-0.2l0.3-0.3
		l0.6-0.1h-0.5l-0.6,0.5h-0.5l-0.1-0.4l0.2-0.3h0.5l0.2-0.1l-0.5-0.1v-0.2l0.7,0.1c0.2,0.1,0.4,0.1,0.5,0.2h0.4l-0.5-0.5l-0.5-0.2
		l-0.7-0.1l-0.7,0.1L27,16l-1.5,0.1h-0.7l-0.5-0.2L23.7,15l-0.8-0.8L22,14l-1-0.2l-0.4,0.1l-0.1-0.1l0.6,0.1v0.4v0.2l1.3-0.1
		l0.4,0.1l0.3,0.3v0.3l-0.1,0.3l-0.2,0.1v0.2l0.5,0.2l0.3,0.3l0.2,0.2l-0.1,0.2h-0.5L23.3,17l-0.3,0.1l-0.3,0.1v-0.5l-0.2,0.6
		l-0.6,0.1h-0.3l0.3-0.9l-0.4,0.9h-0.5H21l0.4-0.8l-0.6,0.8h-0.5l0.3-0.7l-0.5,0.7h-0.4l-0.1-0.2l0.3-0.5l-0.5,0.6h-0.4l-0.2-0.2
		l0.4-0.4l0.3-0.1l-0.5,0.1l-0.3,0.4h-0.7l-0.2-0.3l0.2-0.4l0.6-0.2H18l-0.5,0.2l-0.1-0.2l0.4-0.4h0.4l0-0.2l0.6,0.1l0.1,0.4
		l0.2,0.2h0.6h0.5l0.3-0.2V16l-0.9-0.7L19.4,15l0.1-0.4l0.4-0.2l0.2-0.2l0.1-0.2l0.2-0.2l-0.7,0.1L18.8,14L18,14.5L17.1,15l-1.4,0.7
		l-0.7,0.4l-0.4,0.1L14.6,16l1.4-0.9l-1.2,0.5L14.4,16v0.8L14,17.3c0,0-0.6,0.2-0.7,0.2c-0.1,0-0.3-0.1-0.4-0.1l-0.2,0.3l-0.5,0.1
		h-0.4l0.2-0.5l-0.4,0.5h-0.8l0.2-0.7l-0.3,0.7l-0.1,0.1L10,17.8l0.2-0.6l-0.4,0.7l-0.5-0.1v-0.5L9,17.9H8.4l-0.1-0.1v-0.2H7.8
		l-0.3,0.3L7.1,18H6.7l-0.3-0.3v-0.2l0.4-0.5l-0.7,0.6H5.6l-0.2-0.2l-0.1-0.3l0.3-0.3l0.6-0.1l-0.8-0.3l0.1-0.5L5.7,16h0.6l0.4,0.3
		h0.2L7,15.8l0.1-0.2l0.4,0.2l0.4,0.5l0.3,0.2l0.6-0.1l1.5-0.2l0.7-0.1l0.5-0.1l-0.6-0.1l-0.2-0.1h-0.6v-0.1l0.4-0.4L10,15.7H9.6
		l-0.2-0.1l0.2-0.4l0.1-0.3L9.2,15L9,15.2l-0.2,0.1l-0.5,0.1H7.8l-0.5-0.2L7.1,15l0.7-0.3l-0.9,0.3l-0.3-0.2L6,14.3l-0.5-0.3
		l-0.3-0.4l-0.4-0.4l-0.2-0.4l0.1-0.4v-0.3l-0.6,0.1l-0.3-0.1l-0.2-0.2L3.5,11.4z"/>
	<polyline class="st4" points="10,11.4 10.2,11.9 10.8,12.4 11,12.8 11.3,12.9 11.9,12.9 12.3,12.9 12.8,12.8 13,12.5 13.2,12.5 
		13.6,12.5 13.8,12.3 14.1,12.3 	"/>
	<polyline class="st4" points="13.4,13.5 13.4,12.6 13.4,12.5 	"/>
	<polyline class="st4" points="12.7,12.9 12.8,13.2 12.6,13.7 12.3,13.4 12.3,12.9 	"/>
	<polyline class="st4" points="10.5,12.4 10.3,12.7 10.2,12.7 10.4,12.8 10.4,13.3 10.5,13.4 10.8,13.1 10.9,12.9 10.7,12.4 	"/>
	<polygon class="st4" points="10.8,11.1 11.2,11.1 11.5,11.2 11.7,11.4 11.5,11.6 11.2,11.6 10.9,11.4 	"/>
	<polyline class="st4" points="11.3,11.2 11.2,11.4 11.3,11.5 11.4,11.3 	"/>
	<polygon class="st4" points="12.6,11.5 13.1,11.4 13.4,11.5 13.6,11.6 13.3,11.7 13.1,11.8 12.8,11.7 12.6,11.6 	"/>
	<polygon class="st4" points="13.1,11.7 13.1,11.5 13.2,11.5 	"/>
	<line class="st4" x1="13.4" y1="11.3" x2="13.6" y2="11.2"/>
	<polyline class="st4" points="12.8,10.7 12.4,11.1 12.4,11.6 12.4,11.9 12.2,11.9 12.6,12.1 12.3,12.3 12.2,12.4 12,12.5 
		11.9,12.7 11.7,12.5 11.6,12.4 11.3,12.1 11.4,11.9 11.5,11.7 11.7,11.4 12,11.2 12,10.8 	"/>
	<path class="st4" d="M14.7,11.8c-0.1,0.1-0.2,0.2-0.2,0.2l0.1,0.3"/>
	<path class="st4" d="M15.2,12.9c-0.1-0.1-0.3-0.1-0.4-0.1l0.5,0.5l0.2,0.4L15,13.6l-0.4-0.3l0.5,0.7v0.5l-0.5,0.2l-0.4,0.1l0.1-0.8
		l-0.2,0.9L13.8,15l-0.1-0.4l-0.1-0.3l0.1,0.9l-0.2,0.3l-0.2,0.2"/>
	<polyline class="st4" points="12.9,13.9 12.2,14.5 11.6,14.7 10.9,14.7 10.3,14.6 10,14.2 9.8,13.6 9.8,13.4 	"/>
	<polyline class="st4" points="9.3,12.8 8.7,13 8.5,13.5 8.5,13.9 9,13.4 9.2,13.4 8.9,13.6 8.5,14.2 8.7,14.6 8.7,14.7 8.7,15 
		8.7,15.2 8.8,14.3 9.3,13.9 9.8,13.7 	"/>
	<polyline class="st4" points="10.9,15.8 11.3,15.4 11.4,15 11.6,14.7 	"/>
	<polyline class="st4" points="11.7,16 12.2,15.9 12.4,15.7 12.6,15.2 12.8,14.9 12.7,14.5 12.7,14.1 	"/>
	<line class="st4" x1="5.2" y1="13.4" x2="5.9" y2="13.3"/>
	<line class="st4" x1="4.7" y1="12.9" x2="5.2" y2="12.9"/>
	<polyline class="st4" points="4.3,10.8 5,11 5.2,11.4 5.2,11.7 5.3,11.8 	"/>
	<polyline class="st4" points="5.8,10.3 5.7,10.8 5.7,11.2 5.6,11.5 	"/>
	<polyline class="st4" points="6.7,10.7 6.4,10.9 6.3,11.2 6.3,11.5 	"/>
	<polygon class="st10" points="11.1,13 11.6,13 12,13.1 12,13.1 12.1,13.7 12,13.9 11.7,14.1 11.3,14.1 10.9,14.1 10.9,13.9 
		11,13.6 	"/>
	<polygon class="st11" points="6.9,10.3 7,10.6 7.4,10.6 	"/>
	<polygon class="st11" points="5.6,10 5.9,10.2 6.5,10.2 6.1,9.9 5.5,9.9 5.5,10 	"/>
	<polygon class="st11" points="3.5,10.3 4.2,10.2 4.7,10.3 4.3,10.7 3.8,10.5 	"/>
	<polygon class="st11" points="3.7,11.2 3.1,11.7 2.9,12.3 2.9,12.4 3.1,12.1 3.7,12 	"/>
	<polygon class="st11" points="6.7,15.4 7.4,15.6 7.6,15.8 7,15.8 6.9,15.6 	"/>
	<polygon class="st11" points="4.5,16.4 5,16 5.5,15.9 5.6,15.9 5.3,16.5 	"/>
	<polygon class="st11" points="4.7,17.8 5.1,17.2 5.4,17 5.2,17.2 5.3,17.5 5.6,17.7 	"/>
	<polygon class="st11" points="6.5,17.8 6.7,18.4 6.9,18.7 7,18 	"/>
	<polygon class="st11" points="18.3,15.8 18,15.7 17.4,15.7 17.8,15.9 17.8,16 18.2,16 	"/>
	<polygon class="st11" points="17.4,16.3 16.9,16.6 16.7,16.9 16.7,17.2 17.3,16.7 17.5,16.6 	"/>
	<polygon class="st11" points="17.6,16.9 17.5,17.2 17.5,17.5 17.6,17.9 17.6,18 17.8,17.4 	"/>
	<polygon class="st11" points="18.8,17.5 18.9,17.8 19.1,18.1 19.4,18.2 19.3,17.8 19.3,17.6 	"/>
	<polygon class="st11" points="28.6,16.3 28.1,16.3 27.8,16.5 28.1,16.5 28.5,16.5 28.6,16.5 	"/>
	<polygon class="st11" points="28,17.1 27.8,17.3 27.6,17.6 27.6,17.7 28,17.5 28.3,17.5 	"/>
	<polygon class="st11" points="28.9,17.5 28.6,17.7 28.9,18.2 28.9,18.3 29,17.9 29.1,17.7 	"/>
	<polygon class="st11" points="30.9,17.6 31,18 31.3,18.3 31.3,17.9 31.3,17.6 	"/>
</g>
</svg>
