<?xml version="1.0" encoding="utf-8"?>
<!-- Generator: Adobe Illustrator 23.0.2, SVG Export Plug-In . SVG Version: 6.00 Build 0)  -->
<svg version="1.1" id="图层_1" xmlns="http://www.w3.org/2000/svg" xmlns:xlink="http://www.w3.org/1999/xlink" x="0px" y="0px"
	 viewBox="0 0 83.2 48.5" style="enable-background:new 0 0 83.2 48.5;" xml:space="preserve">
<style type="text/css">
	.st0{fill:#120065;}
	.st1{fill:#FFFFFF;}
	.st2{fill:#BA0019;}
	.st3{fill:#E3F3F3;}
	.st4{fill:#FFFEFE;stroke:#000000;stroke-width:0.25;stroke-miterlimit:10;}
	.st5{fill:#1799F8;}
	.st6{fill:#FFFEFE;stroke:#000000;stroke-width:0.1;stroke-miterlimit:10;}
	.st7{fill:#1799F8;stroke:#000000;stroke-width:0.15;stroke-miterlimit:10;}
	.st8{fill:#FFFFFA;}
	.st9{fill:none;stroke:#000000;stroke-width:0.1;stroke-miterlimit:10;}
	.st10{fill:#FFFFFA;stroke:#000000;stroke-width:0.1;stroke-miterlimit:10;}
	.st11{stroke:#000000;stroke-width:0.1;stroke-miterlimit:10;}
	.st12{fill:#1799F8;stroke:#000000;stroke-width:0.1;stroke-miterlimit:10;}
	.st13{fill:#E0B475;stroke:#000000;stroke-width:0.1;stroke-miterlimit:10;}
	.st14{fill:#F8EEBF;stroke:#000000;stroke-width:0.1;stroke-miterlimit:10;}
	.st15{fill:#C1102E;stroke:#000000;stroke-width:0.1;stroke-miterlimit:10;}
	.st16{font-family:'ArialMT';}
	.st17{font-size:1.19px;}
	.st18{font-size:1.1895px;}
	.st19{font-size:1.1901px;}
	.st20{font-size:1.1898px;}
	.st21{font-size:1.1867px;}
	.st22{font-size:1.1922px;}
	.st23{fill:#8DA8C4;}
	.st24{fill:#DF0C27;}
	.st25{fill:#000200;}
	.st26{fill:#0682D8;stroke:#000000;stroke-width:0.1;stroke-miterlimit:10;}
	.st27{fill:#00A2D5;stroke:#000000;stroke-width:0.1;stroke-miterlimit:10;}
	.st28{fill:#9EC2FF;stroke:#000000;stroke-width:0.1;stroke-miterlimit:10;}
	.st29{fill:#EFEFEF;stroke:#000000;stroke-width:0.1;stroke-miterlimit:10;}
	.st30{fill:#FFE690;}
	.st31{fill:#C5A244;}
	.st32{fill:#00A4DD;}
	.st33{fill:#977029;}
	.st34{fill:#B37E38;stroke:#000000;stroke-width:0.1;stroke-miterlimit:10;}
	.st35{fill:none;}
</style>
<title>资源 2</title>
<g>
	<g id="Tristan_x5F_da_x5F_Cunha">
		<polygon class="st0" points="41.6,0 41.6,2.3 41.6,6.9 41.6,8.3 41.6,12.5 41.6,13.9 41.6,18.5 41.6,19.3 41.6,20.8 36.9,20.8 
			24.3,20.8 22.9,20.8 18.7,20.8 17.3,20.8 4.7,20.8 3.1,20.8 0,20.8 0,48.5 83.2,48.5 83.2,0 41.6,0 		"/>
		<polygon class="st0" points="4.7,20.8 17.3,20.8 17.3,14.4 		"/>
		<polygon class="st0" points="24.3,20.8 36.9,20.8 24.3,14.4 		"/>
		<polygon class="st0" points="41.6,6.9 41.6,2.3 32.4,6.9 		"/>
		<polygon class="st0" points="0,2.3 0,6.9 9.2,6.9 		"/>
		<polygon class="st0" points="36.9,0 24.3,0 24.3,6.3 		"/>
		<polygon class="st0" points="41.6,18.5 41.6,13.9 32.4,13.9 		"/>
		<polygon class="st0" points="17.3,0 4.7,0 17.3,6.3 		"/>
		<polygon class="st0" points="0,13.9 0,18.5 9.2,13.9 		"/>
		<polygon class="st1" points="17.3,6.9 17.3,6.3 4.7,0 0,0 13.9,6.9 		"/>
		<polygon class="st1" points="24.3,6.9 24.6,6.9 38.5,0 36.9,0 24.3,6.3 		"/>
		<polygon class="st1" points="24.3,13.9 24.3,14.4 36.9,20.8 41.6,20.8 27.7,13.9 		"/>
		<polygon class="st1" points="32.4,6.9 41.6,2.3 41.6,0 27.7,6.9 		"/>
		<polygon class="st1" points="9.2,13.9 0,18.5 0,20.8 13.9,13.9 		"/>
		<polygon class="st1" points="30.8,13.9 41.6,19.2 41.6,18.5 32.4,13.9 		"/>
		<polygon class="st1" points="17.3,13.9 17,13.9 3.1,20.8 4.7,20.8 17.3,14.4 		"/>
		<polygon class="st1" points="10.8,6.9 0,1.5 0,2.3 9.2,6.9 		"/>
		<polygon class="st1" points="18.7,8.3 18.7,0 17.3,0 17.3,6.3 17.3,6.9 13.9,6.9 10.8,6.9 9.2,6.9 0,6.9 0,8.3 		"/>
		<polygon class="st1" points="22.9,8.3 41.6,8.3 41.6,6.9 32.4,6.9 27.7,6.9 24.6,6.9 24.3,6.9 24.3,6.3 24.3,0 22.9,0 		"/>
		<polygon class="st1" points="13.9,13.9 17,13.9 17.3,13.9 17.3,14.4 17.3,20.8 18.7,20.8 18.7,12.5 0,12.5 0,13.9 9.2,13.9 		"/>
		<polygon class="st1" points="22.9,12.5 22.9,20.8 24.3,20.8 24.3,14.4 24.3,13.9 27.7,13.9 30.8,13.9 32.4,13.9 41.6,13.9 
			41.6,12.5 		"/>
		<polygon class="st2" points="18.7,12.5 18.7,20.8 22.9,20.8 22.9,12.5 41.6,12.5 41.6,8.3 22.9,8.3 22.9,0 18.7,0 18.7,8.3 0,8.3 
			0,12.5 		"/>
		<polygon class="st2" points="27.7,13.9 41.6,20.8 41.6,19.2 30.8,13.9 		"/>
		<polygon class="st2" points="13.9,6.9 0,0 0,1.5 10.8,6.9 		"/>
		<polygon class="st2" points="27.7,6.9 41.6,0 38.5,0 24.6,6.9 		"/>
		<polygon class="st2" points="17,13.9 13.9,13.9 0,20.8 3.1,20.8 		"/>
		<path class="st3" d="M63.5,13.2l0.7,1.3l0.5,0.7l0.3,0.4l0,0L64.8,17l1.4,0L65,17.3l-0.9,0.3l-0.5,0.3L63.2,18L63,18.1h-0.1h-0.2
			L62.3,18l-0.2-0.2l-0.2-0.1l-0.2-0.1l-0.2-0.1l-0.2-0.1l0.1-2l0.5-0.5c0,0,0.3-0.3,0.3-0.3l0.2-0.1l0.5-0.7v0.4L63.5,13.2
			L63.5,13.2z"/>
		<path class="st4" d="M58.9,27.5h9.8c-0.1,2.6,0,4.4,0,5.8c0.1,1.1-0.1,2.2-0.5,3.2c-0.3,0.7-0.8,1.3-1.4,1.8
			c-0.4,0.3-0.9,0.6-1.4,0.7c-0.5,0.2-1.1,0.4-1.7,0.6l-2.2-0.9c-1.9-1.1-3-3.3-2.5-5.5L58.9,27.5z"/>
		<polygon class="st5" points="59,27.4 59,33.2 68.7,33.2 68.6,27.4 		"/>
		<path class="st6" d="M63.8,29.8c-0.2,0.7-0.5,1.4-0.8,2c-0.3,0.5-0.7,0.9-1.1,1.3h3.7c-0.3-0.3-0.5-0.6-0.8-1
			C64.4,31.4,64,30.6,63.8,29.8z"/>
		<path class="st7" d="M63.8,36.6c0.1-0.7,0.4-1.5,0.8-2.1c0.3-0.5,0.6-0.9,1-1.3h-3.7c0.3,0.3,0.5,0.6,0.8,1
			C63.2,34.9,63.6,35.7,63.8,36.6z"/>
		<polygon class="st8" points="63.3,28.7 62.6,29.1 62.1,29.2 61.7,29.4 61.6,29.7 61.6,30 61.7,30.4 61.8,30.4 61.6,30.6 
			61.4,30.6 61.3,30.7 61.2,30.9 61,30.9 60.7,31 60.4,31.2 60,31.6 59.7,32.2 59.5,32.4 59.5,32.6 59.4,32.6 59.8,32.5 60,32.2 
			60.3,32 60.5,31.7 60.6,31.4 60.7,31.2 61,31.2 61.1,31.2 60.9,31.6 60.9,31.7 61.1,31.6 61.5,31.3 61.7,31.1 61.8,31 62.4,30.8 
			63,30.2 63.4,30 63.3,29.9 62.8,29.9 62.5,30 62.4,30.2 62.4,30 62.3,29.9 62.3,29.7 62.6,29.6 62.7,29.4 62.8,29.3 63.1,29.1 
			63.2,28.8 		"/>
		<polygon class="st9" points="63.3,28.7 62.6,29.1 62.1,29.2 61.7,29.4 61.6,29.7 61.6,30 61.7,30.4 61.8,30.4 61.6,30.6 
			61.4,30.6 61.3,30.7 61.2,30.9 61,30.9 60.7,31 60.4,31.2 60,31.6 59.7,32.2 59.5,32.4 59.5,32.6 59.4,32.6 59.8,32.5 60,32.2 
			60.3,32 60.5,31.7 60.6,31.4 60.7,31.2 61,31.2 61.1,31.2 60.9,31.6 60.9,31.7 61.1,31.6 61.5,31.3 61.7,31.1 61.8,31 62.4,30.8 
			63,30.2 63.4,30 63.3,29.9 62.8,29.9 62.5,30 62.4,30.2 62.4,30 62.3,29.9 62.3,29.7 62.6,29.6 62.7,29.4 62.8,29.3 63.1,29.1 
			63.2,28.8 		"/>
		<polyline class="st10" points="61.8,29.6 61.8,29.8 61.8,30 61.9,30.2 61.9,30.4 61.9,30.5 61.9,30.6 62.1,30.4 62.2,30.4 
			62.3,30.2 		"/>
		<polyline class="st10" points="60.6,31.3 60.3,31.5 60.2,31.6 59.9,32.1 59.7,32.4 59.6,32.5 		"/>
		<polyline class="st10" points="60.4,31.5 60.2,31.9 60,32.2 59.8,32.4 		"/>
		<path class="st10" d="M61.9,29.8c0,0,0.3-0.3,0.3-0.3l0.3-0.1h0.1"/>
		<polyline class="st10" points="61.8,29.7 62.3,29.4 62.6,29.3 		"/>
		<polyline class="st10" points="61.8,29.6 62.2,29.3 62.5,29.2 		"/>
		<line class="st9" x1="62" y1="29.8" x2="62.2" y2="29.9"/>
		<line class="st9" x1="62.2" y1="30" x2="62.3" y2="29.9"/>
		<line class="st9" x1="62.2" y1="30.2" x2="62.3" y2="30.1"/>
		<polygon class="st10" points="61.4,30.9 61.4,30.9 61.3,31 61.4,31 61.5,30.9 		"/>
		<rect x="61.4" y="31" class="st11" width="0" height="0"/>
		<polygon class="st8" points="64.4,28.7 65.1,29.1 65.7,29.2 66,29.5 66.2,29.7 66.2,30 66,30.4 66,30.5 66.2,30.6 66.3,30.7 
			66.4,30.8 66.5,30.9 66.7,30.9 67,31 67.3,31.2 67.7,31.7 68,32.2 68.2,32.4 68.2,32.6 68.3,32.6 67.9,32.5 67.7,32.3 67.4,32 
			67.3,31.7 67.1,31.4 67,31.3 66.7,31.2 66.6,31.2 66.8,31.6 66.9,31.8 66.7,31.6 66.2,31.3 66,31.1 65.9,31 65.3,30.8 64.8,30.2 
			64.3,30.1 64.4,29.9 64.9,29.9 65.2,30 65.3,30.2 65.3,30 65.4,29.9 65.5,29.7 65.2,29.6 65,29.5 64.9,29.3 64.6,29.1 64.5,28.9 
					"/>
		<polygon class="st9" points="64.4,28.7 65.1,29.1 65.7,29.2 66,29.5 66.2,29.7 66.2,30 66,30.4 66,30.5 66.2,30.6 66.3,30.7 
			66.4,30.8 66.5,30.9 66.7,30.9 67,31 67.3,31.2 67.7,31.7 68,32.2 68.2,32.4 68.2,32.6 68.3,32.6 67.9,32.5 67.7,32.3 67.4,32 
			67.3,31.7 67.1,31.4 67,31.3 66.7,31.2 66.6,31.2 66.8,31.6 66.9,31.8 66.7,31.6 66.2,31.3 66,31.1 65.9,31 65.3,30.8 64.8,30.2 
			64.3,30.1 64.4,29.9 64.9,29.9 65.2,30 65.3,30.2 65.3,30 65.4,29.9 65.5,29.7 65.2,29.6 65,29.5 64.9,29.3 64.6,29.1 64.5,28.9 
					"/>
		<polyline class="st10" points="66,29.7 66,29.8 66,30.1 65.8,30.3 65.8,30.5 65.8,30.6 65.8,30.7 65.7,30.4 65.5,30.4 65.4,30.2 
					"/>
		<polyline class="st10" points="67.1,31.3 67.4,31.5 67.6,31.7 67.8,32.1 68.1,32.5 68.1,32.5 		"/>
		<polyline class="st10" points="67.3,31.5 67.5,31.9 67.8,32.2 67.9,32.5 		"/>
		<path class="st10" d="M65.8,29.8c0,0-0.3-0.2-0.3-0.3c-0.1,0-0.2-0.1-0.3-0.1h-0.1"/>
		<polyline class="st10" points="65.9,29.7 65.5,29.4 65.1,29.3 		"/>
		<polyline class="st10" points="66,29.6 65.5,29.4 65.3,29.3 		"/>
		<line class="st9" x1="65.7" y1="29.8" x2="65.5" y2="29.9"/>
		<line class="st9" x1="65.6" y1="30.1" x2="65.4" y2="30"/>
		<line class="st9" x1="65.5" y1="30.2" x2="65.4" y2="30.1"/>
		<polygon class="st10" points="66.3,31 66.3,31 66.4,31 66.3,31.1 66.3,31 		"/>
		<rect x="66.3" y="31" class="st11" width="0" height="0"/>
		<polygon class="st5" points="63.3,37.7 62.6,37.3 62.1,37.2 61.7,36.9 61.6,36.7 61.6,36.4 61.7,36 61.8,35.9 61.6,35.8 
			61.4,35.7 61.3,35.6 61.2,35.5 61,35.5 60.7,35.4 60.4,35.2 60,34.7 59.7,34.2 59.5,34 59.5,33.8 59.4,33.8 59.8,33.9 60,34.1 
			60.3,34.4 60.5,34.7 60.6,35 60.7,35.1 61,35.2 61.1,35.2 60.9,34.8 60.9,34.6 61.1,34.8 61.5,35.1 61.7,35.3 61.8,35.4 
			62.4,35.6 63,36.2 63.4,36.3 63.3,36.5 62.8,36.5 62.5,36.4 62.4,36.2 62.4,36.4 62.3,36.5 62.3,36.7 62.6,36.8 62.7,36.9 
			62.8,37.1 63.1,37.3 63.2,37.5 		"/>
		<polygon class="st9" points="63.3,37.7 62.6,37.3 62.1,37.2 61.7,36.9 61.6,36.7 61.6,36.4 61.7,36 61.8,35.9 61.6,35.8 
			61.4,35.7 61.3,35.6 61.2,35.5 61,35.5 60.7,35.4 60.4,35.2 60,34.7 59.7,34.2 59.5,34 59.5,33.8 59.4,33.8 59.8,33.9 60,34.1 
			60.3,34.4 60.5,34.7 60.6,35 60.7,35.1 61,35.2 61.1,35.2 60.9,34.8 60.9,34.6 61.1,34.8 61.5,35.1 61.7,35.3 61.8,35.4 
			62.4,35.6 63,36.2 63.4,36.3 63.3,36.5 62.8,36.5 62.5,36.4 62.4,36.2 62.4,36.4 62.3,36.5 62.3,36.7 62.6,36.8 62.7,36.9 
			62.8,37.1 63.1,37.3 63.2,37.5 		"/>
		<polyline class="st12" points="61.8,36.7 61.8,36.6 61.8,36.3 61.9,36.1 61.9,35.9 61.9,35.8 61.9,35.7 62.1,36 62.2,36 
			62.3,36.2 		"/>
		<polyline class="st12" points="60.6,35.1 60.3,34.9 60.2,34.7 59.9,34.3 59.7,33.9 59.6,33.9 		"/>
		<polyline class="st12" points="60.4,34.9 60.2,34.5 60,34.2 59.8,33.9 		"/>
		<path class="st12" d="M61.9,36.6c0,0,0.3,0.2,0.3,0.3c0.1,0,0.2,0.1,0.3,0.1h0.1"/>
		<polyline class="st12" points="61.8,36.7 62.3,37 62.6,37.1 		"/>
		<polyline class="st12" points="61.8,36.8 62.2,37 62.5,37.1 		"/>
		<line class="st9" x1="62" y1="36.6" x2="62.2" y2="36.5"/>
		<line class="st9" x1="62.2" y1="36.3" x2="62.3" y2="36.4"/>
		<line class="st9" x1="62.2" y1="36.2" x2="62.3" y2="36.3"/>
		<polygon class="st9" points="61.4,35.4 61.4,35.4 61.3,35.4 61.4,35.3 61.5,35.4 		"/>
		<rect x="61.4" y="35.4" class="st11" width="0" height="0"/>
		<polygon class="st5" points="64.4,37.7 65.1,37.3 65.6,37.2 66,36.9 66.1,36.7 66.1,36.4 66,36 65.9,35.9 66.1,35.8 66.3,35.7 
			66.4,35.6 66.5,35.5 66.7,35.5 66.9,35.4 67.3,35.2 67.7,34.7 67.9,34.2 68.2,34 68.2,33.8 68.3,33.8 67.8,33.9 67.6,34.1 
			67.4,34.4 67.2,34.7 67.1,35 67,35.1 66.7,35.2 66.6,35.2 66.8,34.8 66.8,34.6 66.6,34.8 66.2,35.1 65.9,35.3 65.9,35.4 
			65.3,35.6 64.7,36.2 64.3,36.3 64.4,36.5 64.8,36.5 65.1,36.4 65.3,36.2 65.3,36.4 65.4,36.5 65.4,36.7 65.1,36.8 65,36.9 
			64.9,37.1 64.6,37.3 64.4,37.5 		"/>
		<polygon class="st9" points="64.4,37.7 65.1,37.3 65.6,37.2 66,36.9 66.1,36.7 66.1,36.4 66,36 65.9,35.9 66.1,35.8 66.3,35.7 
			66.4,35.6 66.5,35.5 66.7,35.5 66.9,35.4 67.3,35.2 67.7,34.7 67.9,34.2 68.2,34 68.2,33.8 68.3,33.8 67.8,33.9 67.6,34.1 
			67.4,34.4 67.2,34.7 67.1,35 67,35.1 66.7,35.2 66.6,35.2 66.8,34.8 66.8,34.6 66.6,34.8 66.2,35.1 65.9,35.3 65.9,35.4 
			65.3,35.6 64.7,36.2 64.3,36.3 64.4,36.5 64.8,36.5 65.1,36.4 65.3,36.2 65.3,36.4 65.4,36.5 65.4,36.7 65.1,36.8 65,36.9 
			64.9,37.1 64.6,37.3 64.4,37.5 		"/>
		<polyline class="st12" points="65.9,36.7 65.9,36.6 65.9,36.3 65.8,36.1 65.8,35.9 65.8,35.8 65.8,35.7 65.6,36 65.4,36 
			65.3,36.2 		"/>
		<polyline class="st12" points="67.1,35.1 67.4,34.9 67.5,34.7 67.8,34.3 68,33.9 68.1,33.9 		"/>
		<polyline class="st12" points="67.2,34.9 67.5,34.5 67.7,34.2 67.9,33.9 		"/>
		<path class="st12" d="M65.8,36.6c0,0-0.3,0.2-0.3,0.3c-0.1,0-0.2,0.1-0.3,0.1L65,37"/>
		<polyline class="st12" points="65.9,36.7 65.4,37 65,37.1 		"/>
		<polyline class="st12" points="65.9,36.8 65.5,37 65.2,37.1 		"/>
		<line class="st9" x1="65.7" y1="36.6" x2="65.5" y2="36.5"/>
		<line class="st9" x1="65.5" y1="36.3" x2="65.4" y2="36.4"/>
		<line class="st9" x1="65.5" y1="36.2" x2="65.3" y2="36.3"/>
		<polygon class="st9" points="66.3,35.4 66.3,35.4 66.4,35.4 66.3,35.3 66.2,35.4 		"/>
		<rect x="66.3" y="35.4" class="st11" width="0" height="0"/>
		<polygon class="st13" points="53.3,27.4 52.5,27.3 51.9,27.3 51.6,27.7 51.2,28.9 50.9,30 50.8,31.1 51,33.1 51.5,34.7 52.3,36.2 
			52.6,36.5 51.6,35.2 51.4,34.8 50.7,32.7 50.5,31.3 50.6,29.7 51.2,27.4 51.7,26.8 52.3,26.5 53.4,26.9 		"/>
		<path class="st13" d="M53.3,27.2l-0.5-0.1h-0.3l-0.8,1.7L51.4,30l-0.3,1.3L51,33.1l0.7,3.2l-1-2.8l0.1-2.5l0.8-2.8l0.7-1.4
			l0.3-0.4l0.8-0.1l0.7,0.1l0.4,0.1l0.6,0.4l0.8,0.8l0.3,0.5l0.2,0.1l0.1,0.1l0.3,0.3L57,29v0.3l-0.1,0.6V30l0.3,0.1l-0.3,0.4v0.1
			l0.2,0.4L57,31.5h-0.1l0.1,0.2v0.4l-0.3,0.2l0.1,0.3L56.5,33l-0.2,0.2v0.4h-0.2v0.3l-0.4,0.1L55.7,34l0.2,0.4l0.1,0.1l-0.2,0
			l0.1,0.3h0.4l0.1,0.3L56,35.3v0.4l0.2,0.1h0.3v0.1l-0.2,0.3v0.1h0.3h0.2v0.1l0.2,0.1l0.2,0.1c0.1-0.1,0.2-0.3,0.3-0.4
			c0.2-0.2,0.3-0.4,0.5-0.5l0.5-0.2l0.4,0.1l-0.1,0.7l-0.4,0.2l0.5-0.1l0.3,0.1l0.1,0.4l-0.3,0.6l-0.5,0.2h-0.6L57,37.7
			c0,0-0.6,0-0.7,0l-0.9-0.3L55,37.1l-0.5-0.4l-0.3-0.3l-0.4-0.4l-0.2-0.7L53.4,35l-0.1-0.4v-0.9v-0.5l-0.1-0.5
			c-0.1-0.3-0.1-0.6-0.1-0.9c0-0.2,0.1-1.2,0.1-1.2s0.1-1.1,0.1-1.1l0.1-0.6l0.1-0.4l0.2-0.4V28h-0.2l-0.5,0.3l-0.5,0.3l0.7-0.7
			l0.3-0.2v-0.3L53.3,27.2z"/>
		<circle class="st9" cx="54.6" cy="28.5" r="0.2"/>
		<circle class="st11" cx="54.6" cy="28.5" r="0.1"/>
		<path class="st9" d="M53.8,28c0,0.1,0,0.2,0.1,0.3l0.4,0.5"/>
		<path class="st9" d="M55.3,27.6c-0.1,0.1-0.1,0.2-0.1,0.3"/>
		<path class="st9" d="M55.4,27.6c0,0.2,0.1,0.3,0.1,0.4c0,0.1,0,0.2,0,0.4"/>
		<path class="st9" d="M53.8,28.1c0,0.3,0.1,0.5,0.3,0.7c0.1,0.1,0.2,0.1,0.4,0.1l0.1-0.1c0.1-0.1,0.2-0.1,0.4-0.1
			c0.1,0,0.3,0,0.4,0.1"/>
		<path class="st9" d="M54.5,29c0,0.1,0.1,0.2,0.3,0.1c0.1,0,0.2-0.1,0.3-0.1c0.1,0,0.2,0,0.3,0.1"/>
		<path class="st9" d="M55.7,28.7c0.1,0,0.2,0,0.3,0c0.1,0,0.1-0.1,0.2-0.1"/>
		<path class="st9" d="M55.8,29.1c0.1,0,0.3-0.1,0.4-0.2"/>
		<path class="st9" d="M55.7,29.4c0.2,0,0.3-0.1,0.4-0.2"/>
		<path class="st9" d="M53.9,29.9v-0.4c0,0,0-0.1,0-0.1c0.1-0.1,0.2-0.1,0.2,0c0,0,0,0,0,0c0,0.1,0,0.2,0,0.3c0,0.1,0,0.2,0,0.3"/>
		<path class="st9" d="M54.7,30.1l0.1-0.5c0,0,0-0.1,0.1-0.1c0,0,0.1,0,0.1,0c0,0,0,0,0.1,0.1c0,0.2,0,0.4,0,0.5"/>
		<path class="st9" d="M55.5,30.2c0-0.1,0-0.3,0.1-0.4c0.1-0.1,0.3-0.1,0.4,0C56,29.9,56,30,56,30.1c0,0.1,0,0.2,0,0.3"/>
		<path class="st9" d="M54,30.7c0-0.1,0.1-0.2,0.1-0.3c0,0,0,0,0-0.1c0.1,0,0.1,0,0.2,0c0,0,0,0,0,0c0,0.1,0,0.2,0,0.2
			c0,0.1,0,0.2,0,0.3"/>
		<path class="st9" d="M54.8,31c0-0.1,0-0.2,0.1-0.3c0-0.1,0.2-0.2,0.3-0.1c0.1,0,0.1,0.1,0.2,0.2c0,0.1,0,0.2,0,0.3"/>
		<path class="st9" d="M55.7,31.3c0-0.1,0.1-0.3,0.2-0.4c0,0,0.1-0.1,0.1-0.1c0.1,0,0.1,0,0.2,0.1c0,0.1,0.1,0.1,0.1,0.2
			c0,0.1,0,0.3,0,0.4"/>
		<path class="st9" d="M54,31.7c0-0.1,0-0.2,0-0.3c0-0.1,0.1-0.2,0.2-0.1c0,0,0,0,0,0c0.1,0,0.1,0.1,0.1,0.2c0,0.2,0,0.3,0,0.5"/>
		<path class="st9" d="M54.9,32.1c0-0.1,0-0.3,0.1-0.4c0-0.1,0.1-0.1,0.2-0.1s0.1,0.1,0.1,0.1c0.1,0.2,0.1,0.3,0.1,0.5"/>
		<path class="st9" d="M55.8,32.5c0-0.1,0-0.2,0-0.3c0-0.1,0-0.2,0-0.3c0.1-0.1,0.2-0.1,0.3,0c0,0,0,0,0,0c0,0.1,0,0.2,0,0.3v0.3"/>
		<path class="st9" d="M53.7,32.9L53.7,32.9l0.2-0.5c0.1,0.1,0.2,0.2,0.2,0.3c0,0.1,0,0.2,0.1,0.3c0.1-0.1,0.3-0.3,0.4-0.5
			c0-0.1,0.1-0.2,0.2-0.2c0,0,0.1,0,0.1,0.1c0.1,0.1,0.1,0.3,0.1,0.5"/>
		<path class="st9" d="M55,33.2C55,33.2,55,33.1,55,33.2l0.5-0.3c0,0,0.1,0,0.1,0s0.1,0,0.1,0.1c0,0,0,0.1,0,0.2v0.2l0,0l0,0"/>
		<path class="st9" d="M53.1,30.5c0-0.1,0.1-0.1,0.1-0.1l0,0c0,0,0.1,0,0.1,0.1v0.4c0,0,0,0.1,0,0.1c0,0,0.1,0,0.1,0"/>
		<path class="st9" d="M53.4,29.7l0.1-0.1l0,0l0,0c0.1,0.2,0.1,0.4,0.1,0.6"/>
		<path class="st9" d="M53.2,31.5c0.1-0.1,0.2-0.1,0.2-0.3c0.1,0.2,0.1,0.4,0.3,0.5"/>
		<path class="st9" d="M53.4,33.4l0.2-0.3c0,0,0-0.1,0.1-0.1c0,0,0.1,0,0.1,0c0.1,0.1,0.1,0.1,0.1,0.2"/>
		<path class="st9" d="M53.3,33.6c0.1,0,0.2,0,0.3-0.1l0.2-0.1h0.9c0.1,0,0.1,0,0.2,0c0.1,0,0.1,0.1,0.2,0.1c0.1,0,0.2,0.1,0.3,0.1
			s0.2,0.1,0.2,0.2"/>
		<path class="st9" d="M53.3,33.9c0.3-0.1,0.5-0.2,0.8-0.2c0.7-0.1,1.3,0.3,1.7,0.8"/>
		<path class="st9" d="M53.5,35.1c0.2,0,0.5-0.1,0.7-0.2c0.2-0.1,0.3-0.2,0.5-0.2c0.1,0,0.3,0.1,0.4,0.1c0.1,0,0.2-0.1,0.3-0.1
			c0.1,0,0.2,0,0.3,0.1"/>
		<path class="st9" d="M55.1,35.8c0-0.1,0-0.3,0-0.4c0-0.1-0.1-0.1-0.1-0.1h0.1h0.3c0,0,0,0,0.1,0c0,0,0,0,0,0.1l-0.1,0.2
			c0,0,0,0.1,0,0.1C55.2,35.8,55.1,35.7,55.1,35.8z"/>
		<path class="st9" d="M54.3,36.5l0.3-0.3c0.1-0.1,0.2-0.2,0.3-0.2"/>
		<path class="st9" d="M55.2,36.2c0,0.1,0.1,0.1,0.2,0.1c0.1,0.1,0.1,0.2,0.1,0.3c0,0,0,0.1,0,0.1c0-0.1,0.2-0.1,0.2-0.2
			s0-0.2,0.1-0.2v-0.1c0,0,0,0,0-0.1l-0.1-0.2c0,0-0.1-0.1-0.1-0.1"/>
		<path class="st9" d="M55.1,37.2C55.1,37.2,55.1,37.2,55.1,37.2c0-0.1,0-0.2,0.1-0.3c0.1-0.1,0.2-0.2,0.4-0.1c0,0,0,0,0,0
			c0.1,0.1,0.2,0.1,0.3,0.1s0.2-0.1,0.3-0.1c0.1,0,0.2,0.1,0.2,0.2c0,0.2-0.1,0.1-0.2,0.2c0,0,0,0,0,0.1v0.5"/>
		<path class="st9" d="M55.9,37l0.1,0.1"/>
		<path class="st9" d="M56.3,37.1c0.2-0.1,0.3-0.3,0.3-0.5"/>
		<path class="st9" d="M57,36.9c0.1,0.2,0.1,0.3,0.1,0.5c0,0,0,0,0,0.1s0,0,0,0s0,0.2,0,0.3"/>
		<path class="st9" d="M57.7,37.4c0.1-0.1,0.3-0.2,0.3-0.4c0-0.1,0-0.3,0.2-0.4c0.1,0,0.1-0.1,0.2-0.1l0.2-0.1c0.1,0,0.2,0,0.3,0
			c0.1,0,0.2,0.1,0.2,0.2"/>
		<path class="st9" d="M57.5,36.7c0.2,0.1,0.4,0.1,0.6,0"/>
		<polygon class="st13" points="56.4,28.4 56.8,27.6 57.1,27.3 57.5,27.3 58.2,27.6 58.9,28.1 59,28.4 58.6,28.4 57.7,27.9 
			57.3,27.9 57.1,28.2 57,28.3 57.1,28.8 57,29 		"/>
		<path class="st9" d="M56.5,28.6c0.1,0.3,0.1,0.5-0.1,0.8c0.1,0,0.2,0,0.2,0.1c0,0.1,0,0.2,0,0.2c-0.1,0.2-0.2,0.4-0.2,0.5
			s0.2,0.2,0.1,0.3s-0.2,0.2-0.2,0.3c0,0.1,0,0.2,0,0.2c0.1,0.2,0,0.4-0.1,0.6c0,0,0,0.1,0,0.1c0,0,0,0.1,0,0.1c0,0.2,0,0.3-0.1,0.5
			c0,0,0,0.1,0,0.1c0,0,0,0.1,0.1,0c-0.1,0-0.3,0.1-0.3,0.2c0.1,0,0.2,0.2,0.2,0.3S56,33.2,56,33.4c0,0.1,0,0.1,0,0.2
			c-0.1,0.2-0.2,0.3-0.4,0.4"/>
		<polygon class="st13" points="57.1,29 57.7,28.4 57.8,28.3 58.7,29 59,29.4 59.2,29.7 59,29.9 58.8,29.7 58.1,29 57.7,28.9 
			57.5,29.3 57.3,30 56.9,30.5 57,29 		"/>
		<path class="st13" d="M57,30.6l0.7-0.9c0.1-0.1,0.3-0.3,0.3-0.3l0.3,0.1l0.3,0.5l0.3,0.6L59,31v0.3l-0.1-0.1l-0.5-0.9l-0.2-0.1
			l-0.3,0.2l-0.3,0.6l-0.4,0.4l-0.4,0.2L57,30.6z"/>
		<polygon class="st13" points="57,31.5 57.4,31.5 57.8,31 58.2,31 58.5,31 58.8,31.8 59,33 58.9,33.7 58.5,34.3 58.3,34.4 58.5,34 
			58.5,33.2 58.6,32.5 58.2,31.5 58,31.5 57.4,32 57,32.4 56.8,32.7 56.4,32.7 56.7,31.6 		"/>
		<polygon class="st13" points="56.6,32.8 57,32.7 57.7,32.4 57.9,32.4 58.2,32.8 58.2,33.6 58,34.3 57.7,34.8 57.5,35.1 57.4,35.1 
			57.7,34 57.7,33.3 57.7,32.9 57.3,33 56.6,33.4 56.5,33.6 56.2,33.9 55.7,33.9 		"/>
		<polygon class="st13" points="74.5,27.4 75.2,27.3 75.9,27.4 76.2,27.7 76.6,28.9 76.8,30 77,31.1 76.8,33.1 76.2,34.7 75.4,36.2 
			75.1,36.5 76.2,35.2 76.4,34.8 77.1,32.7 77.3,31.3 77.2,29.7 76.6,27.4 76.1,26.8 75.5,26.6 74.4,26.9 		"/>
		<path class="st13" d="M74.5,27.2l0.5-0.1h0.3l0.8,1.7l0.4,1.2l0.3,1.3l0.1,1.8l-0.7,3.2l1-2.8L77,30.9l-0.8-2.8l-0.7-1.4l-0.3-0.4
			l-0.8-0.1l-0.7,0.1l-0.4,0.1L72.7,27l-0.8,0.8l-0.3,0.5l-0.2,0.1l-0.1,0.1L71,28.7L70.8,29v0.3l0.1,0.6V30l-0.3,0.1l0.3,0.4v0.1
			l-0.2,0.4l0.1,0.4H71l-0.1,0.2v0.4l0.3,0.2l-0.1,0.3l0.2,0.4l0.2,0.2v0.4h0.2l0.1,0.3l0.4,0.1l0.1,0.1l-0.3,0.4v0.1h0.2L72,34.8
			h-0.3l-0.1,0.3l0.3,0.1v0.4l-0.2,0.1h-0.3v0.1l0.2,0.3v0.1h-0.3h-0.2v0.1l-0.2,0.1l-0.2,0.1c-0.1-0.1-0.2-0.3-0.3-0.4
			c-0.2-0.2-0.3-0.4-0.5-0.5l-0.5-0.2l-0.4,0.1l0.1,0.7l0.4,0.2l-0.5-0.1l-0.3,0.1l-0.1,0.4l0.3,0.6l0.6,0.2h0.6l0.7,0.1
			c0,0,0.6,0,0.7,0l0.9-0.3l0.5-0.4l0.5-0.4l0.3-0.3l0.4-0.4l0.3-0.7l0.1-0.2l0.2-0.4v-0.9v-0.5l0.1-0.5c0.1-0.3,0.1-0.6,0.1-0.9
			c0-0.2-0.1-1.2-0.1-1.2s-0.1-1.1-0.1-1.1l-0.1-0.6l-0.1-0.4l-0.2-0.4v-0.2l0.1,0l0.5,0.3l0.5,0.3l-0.7-0.7l-0.3-0.2v-0.3
			L74.5,27.2z"/>
		<circle class="st9" cx="73.2" cy="28.5" r="0.2"/>
		<circle class="st11" cx="73.2" cy="28.5" r="0.1"/>
		<path class="st9" d="M74,28.1c0,0.1,0,0.2-0.1,0.3l-0.4,0.5"/>
		<path class="st9" d="M72.5,27.6c0,0.1,0.1,0.2,0.1,0.3"/>
		<path class="st9" d="M72.3,27.6c0,0.2-0.1,0.3-0.1,0.4c0,0.1,0,0.2,0,0.4"/>
		<path class="st9" d="M74,28.1c0,0.3-0.1,0.5-0.3,0.7c-0.1,0.1-0.2,0.1-0.4,0.1l-0.1-0.1c-0.1-0.1-0.2-0.1-0.4-0.1
			c-0.1,0-0.3,0-0.4,0.1"/>
		<path class="st9" d="M73.3,29c0,0.1-0.1,0.2-0.3,0.1c-0.1,0-0.2-0.1-0.3-0.1c-0.1,0-0.2,0-0.3,0.1"/>
		<path class="st9" d="M72.1,28.7c-0.1,0-0.2,0-0.3,0c-0.1,0-0.1-0.1-0.2-0.1"/>
		<path class="st9" d="M72,29.2c-0.1,0-0.3-0.1-0.4-0.2"/>
		<path class="st9" d="M72.1,29.4c-0.2,0-0.3-0.1-0.4-0.2"/>
		<path class="st9" d="M73.9,29.9v-0.4c0,0,0-0.1,0-0.1c-0.1-0.1-0.1-0.1-0.2,0c0,0,0,0,0,0c-0.1,0.1-0.1,0.2-0.1,0.3V30"/>
		<path class="st9" d="M73.1,30.1L73,29.7c0,0,0-0.1-0.1-0.1c0,0-0.1,0-0.1,0c0,0,0,0,0,0.1c0,0.2,0,0.4,0,0.5"/>
		<path class="st9" d="M72.3,30.2c0-0.1,0-0.3-0.1-0.4c-0.1-0.1-0.3-0.1-0.4,0c-0.1,0.1-0.1,0.2-0.1,0.3c0,0.1,0,0.2,0,0.3"/>
		<path class="st9" d="M73.8,30.7l-0.1-0.3v-0.1c-0.1-0.1-0.1-0.1-0.2,0c0,0,0,0,0,0c0,0.1,0,0.2,0,0.2c0,0.1,0,0.2,0,0.3"/>
		<path class="st9" d="M72.9,31c0-0.1-0.1-0.2-0.1-0.3c0-0.1-0.2-0.2-0.3-0.1c-0.1,0-0.1,0.1-0.1,0.2c0,0.1,0,0.2,0,0.3"/>
		<path class="st9" d="M72.1,31.3c0-0.1-0.1-0.3-0.2-0.4c0,0-0.1-0.1-0.1-0.1c-0.1,0-0.1,0-0.2,0.1c0,0.1-0.1,0.1-0.1,0.2
			c0,0.1,0,0.3,0,0.4"/>
		<path class="st9" d="M73.7,31.7c0-0.1,0-0.2,0-0.3c0-0.1-0.2-0.2-0.3-0.1c-0.1,0-0.1,0.1-0.1,0.2c0,0.2,0,0.3,0,0.5"/>
		<path class="st9" d="M72.9,32.1c0-0.1,0-0.3-0.1-0.4c0-0.1-0.1-0.1-0.2-0.1s-0.1,0.1-0.2,0.1c-0.1,0.2-0.1,0.3-0.1,0.5"/>
		<path class="st9" d="M72,32.5c0-0.1,0-0.2,0-0.3c0-0.1,0-0.2,0-0.3c-0.1-0.1-0.2-0.1-0.3,0c0,0,0,0,0,0c0,0.1,0,0.2,0,0.3v0.3"/>
		<path class="st9" d="M74.1,32.9C74.1,32.9,74.1,32.9,74.1,32.9l-0.2-0.5c-0.1,0.1-0.1,0.2-0.1,0.3c0,0.1,0,0.2-0.1,0.3
			c-0.1-0.1-0.3-0.3-0.4-0.5c0-0.1-0.1-0.2-0.2-0.2c0,0-0.1,0-0.1,0.1c-0.1,0.1-0.1,0.3-0.1,0.5"/>
		<path class="st9" d="M72.8,33.2C72.8,33.2,72.8,33.2,72.8,33.2l-0.5-0.3c0,0-0.1,0-0.1,0c-0.1,0-0.1,0-0.1,0.1c0,0,0,0.1,0,0.2
			v0.2l0,0l0,0"/>
		<path class="st9" d="M74.6,30.5l-0.1-0.1l0,0c0,0-0.1,0-0.1,0.1v0.4c0,0,0,0.1,0,0.1c0,0-0.1,0-0.1,0"/>
		<path class="st9" d="M74.4,29.7c0-0.1-0.1-0.1-0.1-0.1l0,0l0,0c-0.1,0.2-0.2,0.4-0.1,0.6"/>
		<path class="st9" d="M74.6,31.5c-0.1-0.1-0.2-0.1-0.2-0.3c0,0.2-0.1,0.4-0.2,0.5"/>
		<path class="st9" d="M74.3,33.4l-0.2-0.3c0,0,0-0.1-0.1-0.1c0,0-0.1,0-0.1,0c-0.1,0.1-0.1,0.1-0.1,0.2"/>
		<path class="st9" d="M74.5,33.6c-0.1,0-0.2,0-0.3-0.1l-0.2-0.1h-0.9c-0.1,0-0.1,0-0.2,0c-0.1,0-0.1,0.1-0.2,0.1
			c-0.1,0-0.2,0.1-0.3,0.1c-0.1,0-0.2,0.1-0.2,0.2"/>
		<path class="st9" d="M74.5,33.9c-0.3-0.1-0.5-0.2-0.8-0.2C73,33.6,72.4,34,72,34.5"/>
		<path class="st9" d="M74.3,35.1c-0.2,0-0.5-0.1-0.7-0.2c-0.2-0.1-0.3-0.2-0.5-0.2c-0.1,0-0.2,0.1-0.4,0.1c-0.1,0-0.2-0.1-0.3-0.1
			c-0.1,0-0.2,0-0.3,0.1"/>
		<path class="st9" d="M72.7,35.8c0-0.1,0-0.3,0-0.4c0-0.1,0.1-0.1,0.1-0.1h-0.1h-0.3c0,0,0,0-0.1,0s0,0,0,0.1v0.2c0,0,0,0.1,0,0.1
			C72.6,35.8,72.7,35.7,72.7,35.8z"/>
		<path class="st9" d="M73.5,36.5l-0.3-0.3c-0.1-0.1-0.2-0.1-0.3-0.2"/>
		<path class="st9" d="M72.6,36.2c0,0.1-0.1,0.1-0.2,0.1c-0.1,0.1-0.1,0.2-0.1,0.3c0,0,0,0.1,0,0.1s-0.2-0.1-0.2-0.2s0-0.2-0.1-0.2
			s0,0,0-0.1c0,0,0,0,0-0.1l0.1-0.1c0-0.1,0.1-0.1,0.1-0.1"/>
		<path class="st9" d="M72.7,37.2C72.7,37.2,72.7,37.2,72.7,37.2c0-0.1,0-0.2-0.1-0.3c-0.1-0.1-0.2-0.2-0.4-0.1c0,0,0,0,0,0
			c-0.1,0.1-0.2,0.1-0.3,0.1c-0.1,0-0.2-0.1-0.3-0.1c-0.1,0-0.2,0.1-0.2,0.2c0,0.2,0.1,0.1,0.2,0.2c0,0,0,0,0,0.1v0.5"/>
		<path class="st9" d="M71.8,37l-0.1,0.1"/>
		<path class="st9" d="M71.4,37.1c-0.2-0.1-0.3-0.3-0.3-0.5"/>
		<path class="st9" d="M70.8,36.9c-0.1,0.2-0.1,0.3-0.1,0.5c0,0,0,0,0,0.1v0c0.1,0.1,0,0.2,0,0.3"/>
		<path class="st9" d="M70.1,37.4c-0.1-0.1-0.2-0.2-0.3-0.3c0-0.1,0-0.3-0.2-0.4c0,0-0.1-0.1-0.2-0.1l-0.2-0.1c-0.1,0-0.2,0-0.3,0
			c-0.1,0-0.2,0.1-0.2,0.2"/>
		<path class="st9" d="M70.2,36.7c-0.2,0-0.4,0-0.6,0"/>
		<polygon class="st13" points="71.4,28.4 71,27.6 70.7,27.3 70.2,27.3 69.6,27.6 68.9,28.1 68.7,28.4 69.2,28.4 70.1,27.9 
			70.5,27.9 70.7,28.2 70.8,28.3 70.7,28.8 70.8,29 		"/>
		<path class="st9" d="M71.3,28.6c-0.1,0.3-0.1,0.5,0.1,0.8c-0.1,0-0.2,0-0.2,0.1c0,0.1,0,0.2,0,0.2c0.1,0.2,0.2,0.4,0.2,0.5
			s-0.1,0.2-0.1,0.3s0.2,0.2,0.2,0.3c0,0.1,0,0.2,0,0.2c-0.1,0.2,0,0.4,0.1,0.6c0,0,0,0.1,0,0.1c0,0,0,0.1,0,0.1
			c-0.1,0.2,0,0.3,0.1,0.5c0,0,0,0,0,0.1s0,0.1-0.1,0c0.1,0,0.2,0.1,0.3,0.2c-0.1,0-0.2,0.2-0.2,0.3s0.1,0.3,0.1,0.4s0,0.1,0,0.2
			c0.1,0.2,0.2,0.3,0.4,0.4"/>
		<polygon class="st13" points="70.7,29 70.1,28.4 69.9,28.3 69,29 68.7,29.4 68.6,29.7 68.7,29.9 69,29.7 69.7,29 70.1,28.9 
			70.2,29.3 70.5,30 70.9,30.5 70.8,29 		"/>
		<path class="st13" d="M70.8,30.6l-0.7-0.9c-0.1-0.1-0.3-0.3-0.3-0.3l-0.3,0.1l-0.3,0.5l-0.3,0.6l-0.1,0.4v0.3l0.1-0.1l0.5-0.9
			l0.2-0.1l0.3,0.2l0.3,0.6l0.4,0.4l0.4,0.2L70.8,30.6z"/>
		<polygon class="st13" points="70.7,31.5 70.4,31.5 69.9,31 69.6,31 69.3,31.1 69,31.8 68.8,33 68.8,33.7 69.3,34.3 69.5,34.4 
			69.3,34 69.3,33.2 69.2,32.6 69.6,31.5 69.8,31.5 70.4,32 70.8,32.4 71,32.7 71.4,32.7 71.1,31.6 		"/>
		<polygon class="st13" points="71.2,32.8 70.8,32.7 70.1,32.4 69.9,32.4 69.6,32.8 69.6,33.7 69.8,34.3 70.1,34.8 70.2,35.1 
			70.4,35.1 70.1,34 70.1,33.3 70.1,32.9 70.5,33 71.2,33.4 71.3,33.7 71.6,34 72.1,34 		"/>
		<path class="st14" d="M56.7,39l0.4-0.5l0.6-0.2l0.9,0.2l0.8,0.5l0.7,0.4l0.1,0.3l0.2,0.1l0.2,0.1l0.3,0.2l0.8,0.4
			c0,0,0.9,0.3,0.9,0.3s1.3,0.2,1.3,0.2l1.4-0.2l0.9-0.4l0.6-0.4l0.3-0.2l0.3-0.1l0.2-0.2l0.1-0.2v-0.1l0.2-0.1l0.5-0.3l0.5-0.3
			l0.6-0.3h0.4l0.5,0.1l0.4,0.2v0.3l0.1,0.1c0,0,0,0-0.1,0.1c-0.1,0.1-0.1,0.2-0.1,0.3v0.9l-0.1,0.4L70.3,41l-0.5,0.1h-0.6l-0.5-0.2
			l-0.3-0.1l-0.2,0.1l-0.4,0.4l-0.6,0.3l-1,0.5l-1.1,0.4l-1,0.1h-1l-0.9-0.2l-0.9-0.2l-1-0.5l-0.6-0.4l-0.4-0.4L59,40.7l-0.3,0.2
			l-0.5,0.2h-0.5L57.3,41L57,40.7l-0.1-0.3v-0.4v-0.7L56.7,39z"/>
		<path class="st15" d="M59.2,40.6l-0.3-0.2l-0.3-0.3L58,39.9l-0.4,0l-0.3,0.3v0.4l0.2,0.2l0.3,0.1h0.3c0.1,0,0.3-0.1,0.4-0.1
			c0.1-0.1,0.2-0.1,0.3-0.2l0.1-0.1L59.2,40.6z"/>
		<path class="st15" d="M68.4,40.6l0.5-0.4l0.5-0.3l0.4-0.1h0.4l0.1,0.3v0.3l-0.2,0.2l-0.2,0.1h-0.4l-0.3-0.1L69,40.6l-0.2-0.1
			L68.4,40.6z"/>
		<path class="st14" d="M58.8,38.6l0.3-0.2l0.6-0.2c0.2,0,0.4,0,0.6,0c0.2,0.1,0.4,0.1,0.6,0.2l0.4,0.3l0.4,0.3l0.3,0.2l0.3,0.2
			l0.2,0.1v0.2v0.3l-0.2,0.2h-0.2h-0.2l-0.2-0.1l-0.4-0.1L61,40h-0.3l-0.4-0.3L60,39.3v-0.6l0.6,0.3l0.3,0.1h-0.6h-0.1v0.2l0.1,0.2
			h0.3l0.2-0.2l0.1-0.1v-0.3v-0.2l-0.1-0.2l-0.1-0.1l-0.3-0.2l-0.4-0.1h-0.4l-0.3,0.1l-0.2,0.2v0.1l-0.1,0.1L58.8,38.6z"/>
		<polygon class="st15" points="60.4,39.2 60.8,39.3 61,39.4 60.7,39.6 60.4,39.6 60.2,39.4 60.3,39.2 		"/>
		<path class="st14" d="M68.9,38.6l-0.4-0.3l-0.6-0.2h-0.6l-0.4,0.2l-0.4,0.4c-0.2,0.1-0.4,0.3-0.6,0.5c-0.2,0.1-0.3,0.2-0.5,0.3
			l-0.1,0.1V40l0.1,0.2l0.1,0.1h0.2l0.2-0.1l0.5-0.2l0.4-0.1H67l0.3-0.3l0.1-0.1l0.1-0.2v-0.3v-0.2L67.2,39l-0.3,0.1l-0.2,0h-0.1
			v0.1l0.1,0.2l0.3,0.1c0.1,0,0.3-0.2,0.3-0.2v-0.1v-0.2c0,0-0.1,0-0.2,0c-0.1,0-0.2,0-0.3,0h-0.2h-0.2v-0.3l0.2-0.3l0.3-0.2
			l0.3-0.1h0.4c0.1,0,0.2,0.1,0.3,0.1c0.1,0,0.1,0.1,0.2,0.1l0.1,0.1h0.1L68.9,38.6z"/>
		<polygon class="st15" points="67.2,39.2 66.9,39.3 66.7,39.4 66.8,39.6 67.1,39.6 67.3,39.6 67.4,39.4 67.4,39.2 		"/>
		<polygon class="st15" points="66.8,38.9 66.8,39.2 67.5,38.8 67.6,38.8 67.7,39.3 68.5,38.8 68.4,38.6 68,38.4 67.7,38.4 
			67.5,38.4 67.3,38.5 66.9,38.7 		"/>
		<polygon class="st15" points="59.2,38.7 59.4,38.9 59.7,39.1 60,39.2 60,38.9 60,38.7 60.2,38.7 60.5,39 60.8,39.1 60.9,39.1 
			60.9,38.9 60.8,38.8 60.5,38.5 60.2,38.4 59.9,38.4 59.5,38.4 59.4,38.6 		"/>
		<polyline class="st9" points="61,39.7 61.8,39.8 62,40.1 62.2,39.8 		"/>
		<polyline class="st9" points="65.5,39.8 65.6,40 66.1,39.8 66.6,39.7 		"/>
		<text transform="matrix(1.2061 9.725121e-02 -8.037290e-02 0.9968 57.5895 39.5199)" class="st16 st17">o</text>
		<text transform="matrix(1.1435 0.3957 -0.3271 0.945 58.2299 39.7101)" class="st16 st17">u</text>
		<text transform="matrix(1.1122 0.4767 -0.3939 0.9191 58.8599 40.0496)" class="st16 st17">r</text>
		<text transform="matrix(1.1127 0.4753 -0.3928 0.9196 59.5196 40.4399)" class="st16 st17">f</text>
		<text transform="matrix(1.1219 0.4533 -0.3746 0.9272 59.8707 40.6202)" class="st16 st17">a</text>
		<text transform="matrix(1.1405 0.4102 -0.3401 0.9404 60.4299 40.8503)" class="st16 st18">i</text>
		<text transform="matrix(1.1473 0.3845 -0.3178 0.9482 60.7595 40.9699)" class="st16 st17">t</text>
		<text transform="matrix(1.1514 0.3719 -0.3074 0.9516 61.1396 41.1198)" class="st16 st17">h</text>
		<text transform="matrix(1.1744 0.2915 -0.2409 0.9705 62.1702 41.55)" class="st16 st17">i</text>
		<text transform="matrix(1.1941 0.1955 -0.1616 0.9869 62.5501 41.65)" class="st16 st17">s</text>
		<text transform="matrix(1.2099 -9.999501e-03 9.999500e-03 0.9999 63.4399 41.8289)" class="st16 st19">o</text>
		<text transform="matrix(1.2002 -0.17 0.14 0.9901 64.2995 41.7495)" class="st16 st20">u</text>
		<text transform="matrix(1.1749 -0.2892 0.239 0.971 65.0597 41.6097)" class="st16 st17">r</text>
		<text transform="matrix(1.1523 -0.3691 0.305 0.9523 65.82 41.3005)" class="st16 st17">s</text>
		<text transform="matrix(1.1331 -0.4312 0.361 0.9326 66.3095 41.1393)" class="st16 st21">t</text>
		<text transform="matrix(1.104 -0.4952 0.4093 0.9124 66.7495 41.0099)" class="st16 st17">r</text>
		<text transform="matrix(1.078 -0.549 0.4592 0.8884 67.2398 40.8205)" class="st16 st22">e</text>
		<text transform="matrix(1.0561 -0.5905 0.488 0.8728 67.8005 40.5494)" class="st16 st17">n</text>
		<text transform="matrix(1.0525 -0.5969 0.4933 0.8698 68.4403 40.1598)" class="st16 st17">g</text>
		<text transform="matrix(1.0883 -0.5289 0.4371 0.8994 68.9502 39.8201)" class="st16 st17">t</text>
		<text transform="matrix(1.1859 -0.2402 0.1985 0.9801 69.2196 39.5602)" class="st16 st17">h</text>
		<text transform="matrix(1.21 0 0 1 59.4199 40.0599)" class="st16 st17">.</text>
		<text transform="matrix(1.21 0 0 1 61.8198 41.5502)" class="st16 st17">.</text>
		<text transform="matrix(1.21 0 0 1 63.04 41.8099)" class="st16 st17">.</text>
		<text transform="matrix(1.21 0 0 1 65.3599 41.5199)" class="st16 st17">.</text>
		<path class="st23" d="M60.6,22.5L59.8,23l-0.6,0.7v0.2H60l0.3,0.1l0.5,0.7c0,0,0.6,1.2,0.7,1.3c0.1,0.1,0.1,0.3,0.2,0.4l-0.2,0.2
			l-0.2,0.4L61,27.3v0.4l0.1,0.4l0.1,0.2l0.1,0.1l0.4-0.1l0.6-0.2l0.8-0.5l0.5-0.5l0.6-0.4v0.1l0.1,0.4v0.1h0.3h1.5V27v-0.4
			l-0.3-0.4l0-0.3l-0.1-0.6l-0.1-0.5l-0.1-0.6l-0.1-0.7v-0.7v-0.8L65.1,22h-2.3L60.6,22.5z"/>
		<polygon class="st24" points="60.6,22.6 60.3,23 59.8,23.5 59.7,23.5 60.1,23.6 60.8,23.6 61.4,23.5 61.6,23.4 60.8,23.3 
			60.4,23.2 60.5,23 		"/>
		<polygon class="st24" points="64.7,26.6 64.8,27.4 65.8,27.4 65.8,27 65.8,26.7 65.5,26.5 65.1,26.4 64.8,26.5 		"/>
		<path class="st25" d="M64.7,24.7L64.7,24.7l0.2,1.2l-0.4,0.1l-0.2,0H65l0.5,0.1l0.4,0.2l-0.5-2.2l-0.3,0.1c0,0,0,0.1,0,0.1
			s0.3,1,0.3,1l0.1,0.6V26l-0.4-0.1L65,25.6v-0.5l-0.1-0.4l-0.1-0.1L64.7,24.7z"/>
		<polyline class="st9" points="61.6,23.4 62.5,22.7 63.3,22.4 64.3,22.1 64.8,22.1 64.9,22.1 65.3,22.1 64.4,22.3 63.1,22.8 
			62.5,23.3 62.2,23.5 62.1,23.6 		"/>
		<path class="st25" d="M60.5,23.9l0.5,0.6l0.4,0.8l0.3,0.9v0.5l-0.1,0.5l-0.1,0.3L61.5,28l0.3-0.8l0.4-0.1l0.4-0.2l0.3-0.2l0.1-0.1
			L62,27h-0.2l0.1-0.4V26l-0.1-0.5L61.7,25l-0.1-0.4l-0.1-0.2l-0.1-0.2v-0.1l0.2,0.1l0.2,0.2c0,0,0.1,0.3,0.1,0.4
			c0,0.1,0,0.2,0.1,0.3v-0.5l-0.2-0.3v-0.1l0.3,0.5v-0.6l0.2-0.2c0.2-0.1,0.4-0.3,0.6-0.4c0.2,0,0.5-0.1,0.7-0.2l0.5-0.1l0.4-0.1
			l0.2,0.1v-0.1l-0.1-0.3v-0.1c-0.1,0-0.2-0.1-0.4-0.1H64l-0.6,0.2l-0.3,0.2l-0.5,0.2l-0.7,0.4l-0.3,0.2c0,0-0.4,0.1-0.5,0.1
			c-0.1,0-0.2,0-0.3,0L60.5,23.9z"/>
		<polygon class="st26" points="54.7,21 54.3,20.9 53.8,21.2 53.7,21.6 53.8,21.8 54.2,21.9 54.5,21.9 54.5,21.6 54.5,21.3 		"/>
		<path class="st27" d="M57.5,20.3l0.4-0.2h0.7c0,0,0.5,0.3,0.5,0.3s0.2,0.3,0.2,0.4s0.1,0.6,0.1,0.6l-0.2,0.6L59,22.6l-0.3,0.3
			l-0.3,0.2l-0.1,0.2c0,0,0.1,0.1,0.2,0l0.7-0.5l0.5-0.2h0.4h0.1l-0.1,0.1l-0.9,1.1l0.1,0.1H60l-0.3,0.3v0.1l0.5,0.1l0.2,0.2
			c0,0-0.1,0.1-0.1,0.1h-0.5l-0.4,0L59,24.5l-0.3-0.1l-0.4-0.1L58,24.3l-0.1,0.1l-0.1,0.1h-0.1l-0.2-0.2l-0.1-0.5
			c0,0,0.2-0.7,0.3-0.8c0.1-0.2,0.2-0.4,0.3-0.6c0-0.1,0.1-0.4,0.1-0.4l0.1-0.5V21L58,20.7L57.5,20.3z"/>
		<path class="st28" d="M54.8,19.9L55,20c0,0,0.6,0,0.6,0s0.3-0.1,0.4-0.1l0.6,0.1l0.4,0.1l0.2,0.3l0.2,0.1l0.5,0.3L58,21l-0.2,0.1
			v0.5l-0.2,0.5l-0.5,0.5L57,22.8l0,0.1c0,0-0.2-0.2-0.2-0.3s0-0.4,0-0.5s0.2-0.5,0.2-0.5c0.1-0.1,0.2-0.3,0.2-0.4l0.1-0.2l-0.1,0
			l-0.3,0.5l-0.4,0.6l-0.6,0.5l-0.4,0.2l-0.4,0.1h-0.3l-0.5-0.4L53.9,22l-0.1-0.1l0.8,0.1l0.6-0.2l0.7-0.5l0.4-0.3l0.1-0.1l-0.4-0.1
			c-0.1,0-0.3-0.1-0.4-0.1l-0.4-0.2l-0.2-0.2l-0.1-0.1L54.8,19.9z"/>
		<path class="st27" d="M54.9,24.9v-0.7v-0.4l0.3-0.2l0.4-0.1l0.6-0.1l0.4,0.1l0.3,0l0.3,0.1v0l0.1,0.1V24v0.1l-0.1,0.2v0.3v0.1
			l0.1,0.3l0.1,0.2l-0.7,0l-0.4,0l-0.2,0.1l0-0.2c0.1-0.1,0.2-0.2,0.2-0.3l0.2-0.3l-0.2-0.1H56h-0.3l-0.2,0.1l-0.2,0.2L54.9,24.9z"
			/>
		<path class="st28" d="M57.5,25.2l0.5,0.6l0.4,0.2l0.4,0.1h0.6h0.4H60l0-0.1l-0.3,0.4l-0.1,0.4V27v0.1c0,0,0.1,0.1,0.1,0.1l0.4-0.2
			l0.3-0.2l0.5-0.3c0,0,0.2-0.4,0.2-0.4c0.1-0.1,0.2-0.1,0.2-0.2v-0.1l-0.8-1.5l-0.2-0.2h-0.1l0.1,0.3l-0.1,0.1h-0.5h-0.2l-0.9-0.2
			l-0.2-0.1h-0.4H58l0.2,0.1l0.3,0.2l0.4,0.1l0.4,0h0.6H60L59.8,25l-0.3,0.1h-0.3h-0.4c-0.1,0-0.2-0.1-0.4-0.1
			c-0.1,0-0.3-0.2-0.3-0.2c-0.1,0-0.2-0.1-0.3-0.1l-0.1-0.1l-0.2-0.3L57.4,24l-0.1,0.4L57.5,25.2z"/>
		<path class="st27" d="M65.7,22.2l-0.4,0.4L65,22.7l-0.1,0.1l0.2,0.1c0.1,0,0.1,0,0.2,0c0.1,0,0.2,0,0.3,0l-0.1,0.4v0.3V24l0.1,0.5
			l0.2,0.5l0,0c0.1-0.2,0.1-0.4,0.2-0.6l0.2-0.4l0.1-0.3v0.6c0,0.2,0.1,0.3,0.1,0.5l0.2,0.4l0.3,0.4c0,0,0-0.2,0-0.2
			s0.1-0.3,0.1-0.3L67,25v-0.1l0.1,0.1l0.2,0.3l0.1,0l0.3-0.1l0.3,0H68c0,0,0.3,0.2,0.4,0.2l0.4,0.1l0.3,0h0.4l0.2-0.1
			c0,0,0.2,0,0.2-0.1s0.3-0.2,0.3-0.3s0.1-0.3,0.1-0.3l0.2-0.1c0,0,0.1-0.1,0.1-0.2l-0.1-0.7v-0.1l-0.1,0.7l-0.2-0.2L70,24.1
			l-0.4,0.2h-0.4h-0.3c-0.1,0-0.2,0-0.3,0l-0.4-0.1L68,24c0-0.1,0.1-0.1,0.1-0.2l0.4-0.2c0,0,0.6,0,0.1,0H68l-0.3-0.1l-0.2-0.2
			L67.2,23c0-0.1,0-0.2-0.1-0.2c-0.1-0.1-0.1-0.1-0.2-0.2l-0.3-0.1L65.7,22.2z"/>
		<path class="st28" d="M67.2,22.7l0.2,0.4l0.4,0.4l0.5,0.1h0.4l-0.6,0.3L68,24l0.2,0.1h0.5L69,24c0.1-0.1,0.2-0.1,0.3-0.2h0.3
			l0.3,0.1l0.2,0.2l0.1,0.2l0.1-0.7l0.1,0.8v0.1h0.7l0.3,0.1h0.3l-0.1-0.2v-0.3l-0.2-0.3L72,24c0.1,0,0.3,0.1,0.4,0.1
			c0.1,0.1,0.1,0.2,0.2,0.3l0.1-0.3l-0.1-0.4l-0.1-0.5L72.2,23c-0.1,0-0.2,0-0.3,0c-0.1,0-0.2,0-0.4,0l-0.6,0.3l-0.2,0.1l-0.2,0
			c0-0.1-0.1-0.2-0.1-0.2l-0.1-0.3v-0.2l-0.3-0.8l-0.1-0.4V21c0-0.1,0-0.2,0-0.3l0.1-0.2l0.1-0.1H70l-0.3-0.1l-0.5,0.1L69,20.7
			l-0.3,0.2l-0.1,0.3l0.1,0.3c0,0,0.1,0.3,0.1,0.4s0.2,0.3,0.2,0.3l0.1,0.2l0.1,0.1c0,0-0.2-0.2-0.3-0.2c-0.1,0-0.3-0.1-0.4-0.1H68
			L68,22.2l0.1,0.1l0.2,0.2l0.1,0.1H68h-0.4h-0.2L67.2,22.7L67.2,22.7z"/>
		<path class="st27" d="M68.7,20.8l0.2-0.4l0.3-0.2l0.3-0.1H70l0.4,0.1h0.3c0,0,0.1-0.1,0.1-0.1l0.3-0.1c0,0,0.1-0.1,0.1-0.1
			c0.1,0,0.1,0,0.2,0c0.1,0,0.1,0,0.2,0c0.1,0,0.1,0,0.2,0s0,0.1,0.1,0c0.1,0,0.2,0,0.3,0c0.1,0,0.2,0.1,0.2,0.1c0.1,0,0.2,0,0.3,0
			h0.2l0.1-0.1l0,0H73l-0.2,0.3l-0.3,0.2l-0.3,0.1l-0.3,0.1h-0.5l0.2,0.2c0.1,0.1,0.2,0.1,0.3,0.1l0.3,0.2c0.1,0,0.1,0.1,0.2,0.1
			c0,0,0.1,0.1,0.2,0.1s0.3,0,0.3,0.1c0.1,0,0.1,0.1,0.2,0.1l0.3,0.1h0.1h0.1L73.2,22l-0.1,0.2l-0.1,0.2c0,0-0.1,0.1-0.1,0.1
			c-0.1,0-0.2,0-0.3,0c-0.1,0-0.2,0-0.3,0L72,22.3c0-0.1-0.1-0.1-0.2-0.1c-0.1,0-0.1-0.1-0.2-0.1s-0.1,0-0.1-0.1l-0.1-0.2h-0.1
			c0,0-0.1-0.1-0.1-0.1l0,0c0,0.1,0,0.1,0,0.2c0,0,0,0.1,0,0.1c0,0.1-0.1,0.2-0.1,0.3c0,0.1,0,0.1,0,0.2c0,0,0,0.1,0,0.1l0,0
			c-0.1-0.1-0.1-0.2-0.2-0.2l-0.2-0.1c0,0-0.2-0.2-0.2-0.3s-0.2-0.2-0.2-0.3l-0.1-0.2c0-0.1,0-0.1,0-0.2v-0.2c0-0.1,0-0.2,0-0.3
			c0-0.1,0-0.2,0-0.2v-0.1c0-0.1-0.1-0.1-0.1-0.2h-0.1l-0.3-0.1l-0.3,0.1l-0.3,0.2l-0.3,0.3L68.7,20.8z"/>
		<path class="st26" d="M72.4,23.2c0,0,0.3,0.3,0.3,0.3c0,0.1,0.1,0.2,0.1,0.3l0.1,0.4v0.3V25v0.3l-0.3,0.2l-0.3,0.1l-0.5-0.1
			l-0.2-0.1l-0.1-0.2L71.5,25l0.3-0.1l0.4-0.1c0,0,0.1-0.2,0.2-0.2c0.1,0,0.2-0.1,0.2-0.1l0.1-0.1c0-0.1,0-0.1,0-0.2
			C72.6,24.1,72.4,23.2,72.4,23.2z"/>
		<polygon class="st28" points="67.3,25.4 67.3,25.4 67.3,25.6 67.5,25.9 67.6,26.1 68,26.3 68.4,26.5 68.5,26.5 68.5,26.2 68.5,26 
			68.4,25.7 68.4,25.6 68.4,25.4 68,25.2 67.3,25.3 		"/>
		<polygon class="st28" points="72.8,20.9 73.1,20.6 73.4,20.7 73.9,20.9 74.1,21.2 74.1,21.5 73.7,21.9 73.4,22.2 73.1,22.4 
			72.8,22.5 73.2,22 73.3,21.7 73.2,21.5 73.1,21.3 73,21.1 72.8,21 		"/>
		<path class="st28" d="M56.3,25.6L56,26l-0.4,0.1L55.1,26l-0.2-0.2c0,0,0-0.3,0-0.3c0-0.2,0.1-0.3,0.1-0.5l0.2-0.2v0l0.1,0.3
			l0.2,0.2l0.3,0.2h0.2l0.3,0.1L56.3,25.6z"/>
		<polyline class="st9" points="67.9,25.2 67.6,24.8 67.4,24.5 67.2,24.3 67.1,24 66.9,24 67,24.9 		"/>
		<path class="st9" d="M68.7,24.3l0.5,0.1c0.1,0,0.3,0,0.4,0l0.3-0.1l0.1,0l0.1,0.4l-0.1,0.3l-0.2,0.3l-0.1,0.1"/>
		<path class="st1" d="M67.9,19.6c0,0-0.2-0.3-0.2-0.3l-0.2-0.1h-0.3l-0.3,0l-0.1-0.1L66.9,19l-0.1-0.1h-0.1h-0.4L65,18.7h-0.4
			l-0.3-0.1h-0.1l0,0l-0.9,0c-0.1,0-0.2,0.1-0.4,0.1l-0.4-0.1h-0.4L62,18.7l-0.2,0.1l-0.1,0.1H61L60.8,19h-0.2h-0.2l-0.3,0.1
			l-0.4,0.5l-0.1,0.3l0.8,1.8l1.9-0.5l1.5-0.2h0.8l0.8,0.2l1.4,0.4l0.3,0.2l0.9-1.9L67.9,19.6z"/>
		<polygon class="st29" points="61.6,21.3 63.2,21 65.3,21.1 66.2,21.3 67.2,21.6 66.9,21.2 66.9,20.5 67.7,20.2 67.9,19.7 
			67.7,19.4 66.6,18.9 66.3,18.8 66.3,18.6 65.8,18.7 65.3,18.7 64.8,18.7 64.5,18.6 64.2,18.5 63.8,18.3 63.5,18.6 63.1,18.7 
			62.7,18.7 62.1,18.7 61.8,18.8 61.7,18.9 61.7,18.7 61.8,18.6 61.5,18.5 61.1,18.7 61,18.9 60.5,18.9 60.1,19 59.8,19.4 
			59.8,19.6 59.9,20 60,20.2 60.5,20.4 60.7,20.4 60.8,20.6 60.8,21.3 60.7,21.5 60.6,21.6 		"/>
		<polygon class="st30" points="59.3,19.4 59.8,19.6 59.9,20 59.9,20.1 60.1,20.2 60.3,20.3 60.4,20.2 60.3,20.1 60.2,20 60.5,19.6 
			60.5,19.6 60.8,19.8 60.8,19.9 60.7,20.2 60.6,20.3 60.7,20.4 60.8,20.7 60.8,21 60.7,21.4 60.6,21.6 60.5,21.8 60.4,21.6 
			60.1,21.2 60,20.8 59.8,20.4 59.6,20.1 59.3,19.7 		"/>
		<path class="st30" d="M68.4,19.4L68,19.6l-0.1,0.1L67.8,20v0.1l-0.2,0.1l-0.3,0.1l-0.1-0.1l0.2-0.1c0-0.1,0-0.1,0-0.2
			c0,0-0.1-0.1-0.1-0.1l-0.1-0.1v-0.1L67,19.8l0,0.2v0.1v0.1h0.1l-0.1,0L67,20.5v0.2V21v0.3v0.2l0.1,0.2l0.2,0.1
			c0,0,0.4-0.8,0.4-0.8s0.3-0.6,0.3-0.6s0.2-0.3,0.2-0.4S68.4,19.4,68.4,19.4z"/>
		<path class="st30" d="M67.1,21.8V22l0.1,0.1l-0.1,0.1L67,22.3v0.2l-1.1-0.4l-0.2-0.1L65.1,22h-0.7h-0.8H63l-0.6,0.1l-0.7,0.1
			l-0.7,0.3l-0.3,0l0.1-0.2l-0.1-0.1l-0.2-0.1l0-0.1l0.1-0.2v-0.1l0.7-0.2l0.9-0.2l0.8-0.1l0.6-0.1h0.4l0.5,0l0.4,0l0.5,0.1l0.3,0.1
			l0.5,0.1l0.4,0.1l0.4,0.1L67.1,21.8z"/>
		<path class="st31" d="M60.6,21.8l0.8-0.3l1-0.2l1.2-0.1h0.9l0.8,0.1c0.2,0,0.5,0.1,0.7,0.2c0.2,0.1,0.4,0.1,0.6,0.2
			c0.1,0,0.4,0.2,0.5,0.2c0.1,0,0.1,0,0.2,0.1v0.4l-0.2,0.2l-0.7-0.2l-0.6-0.2L65,21.8l-0.8-0.1h-1.8l-0.8,0.1l-0.5,0.3l-0.3,0.2
			h-0.1"/>
		<polyline class="st9" points="60.6,21.9 60.9,22 60.7,22.3 		"/>
		<polyline class="st9" points="60.7,21.8 61.2,21.8 60.9,22.3 		"/>
		<polyline class="st9" points="63.5,21.2 63.2,21.4 63.1,21.5 63.5,21.7 		"/>
		<path class="st9" d="M64.1,21.2c0.1,0,0.4,0.2,0.4,0.2l-0.4,0.3"/>
		<polygon class="st9" points="63.8,21.2 63.5,21.4 63.8,21.6 64.2,21.4 		"/>
		<polyline class="st9" points="66.9,21.8 66.4,21.9 66.7,22.3 		"/>
		<polyline class="st9" points="67,21.9 66.7,22 66.9,22.4 		"/>
		<ellipse transform="matrix(0.9786 -0.2059 0.2059 0.9786 -3.1255 13.2262)" class="st9" cx="62" cy="21.6" rx="0.2" ry="0.1"/>
		<ellipse transform="matrix(0.9786 -0.2059 0.2059 0.9786 -3.1255 13.2262)" class="st9" cx="62" cy="21.6" rx="0.3" ry="0.2"/>
		<ellipse transform="matrix(0.2597 -0.9657 0.9657 0.2597 27.6844 79.3655)" class="st9" cx="65.6" cy="21.6" rx="0.1" ry="0.2"/>
		<ellipse transform="matrix(0.2597 -0.9657 0.9657 0.2597 27.6844 79.3655)" class="st9" cx="65.6" cy="21.6" rx="0.2" ry="0.3"/>
		<line class="st9" x1="59.9" y1="20.7" x2="60.6" y2="20.3"/>
		<line class="st9" x1="60" y1="20.8" x2="60.8" y2="20.5"/>
		<line class="st9" x1="60.1" y1="21.2" x2="60.8" y2="20.9"/>
		<line class="st9" x1="60.3" y1="21.3" x2="60.7" y2="21.1"/>
		<line class="st9" x1="60.2" y1="20.7" x2="60.3" y2="21"/>
		<line class="st9" x1="60.5" y1="20.6" x2="60.6" y2="21"/>
		<line class="st9" x1="59.7" y1="20.2" x2="59.9" y2="20.1"/>
		<line class="st9" x1="60.3" y1="20" x2="60.8" y2="20"/>
		<line class="st9" x1="66.9" y1="20" x2="67.4" y2="20"/>
		<line class="st9" x1="67.9" y1="20.1" x2="68" y2="20.2"/>
		<line class="st9" x1="67.9" y1="19.7" x2="68.1" y2="19.9"/>
		<line class="st9" x1="59.5" y1="19.8" x2="59.8" y2="19.7"/>
		<line class="st9" x1="67.2" y1="20.3" x2="67.8" y2="20.7"/>
		<line class="st9" x1="67" y1="20.5" x2="67.7" y2="20.8"/>
		<line class="st9" x1="66.9" y1="20.9" x2="67.5" y2="21.1"/>
		<line class="st9" x1="66.9" y1="21.1" x2="67.4" y2="21.3"/>
		<line class="st9" x1="67.3" y1="20.6" x2="67.1" y2="21"/>
		<line class="st9" x1="67.5" y1="20.8" x2="67.3" y2="21"/>
		<polyline class="st9" points="59.8,19.6 59.7,19.6 59.9,19.3 60.2,19 60.4,18.9 60.6,19 60.9,19 		"/>
		<path class="st30" d="M60.7,19.1l0.2,0.1h0.2l0.3-0.2h0.1v0.1v0.1l-0.3,0.2l-0.3,0.2l-0.1,0.3v0.5l0.1,0.3l0.2,0.4l0.2,0.1
			l0.2-0.4l0.3-0.1l0.1,0.3v0.2l0.3-0.1l-0.1-0.3L62,20.7l0.4,0.1l0.2,0.1h0.1l-0.1-0.3l-0.1-0.3V20v-0.3l0.1-0.2v-0.2V19l0,0h-0.2
			h-0.2H62l-0.1,0.1h-0.1l0,0c0,0-0.1-0.1-0.1-0.1v0v-0.1v-0.1v-0.1v-0.2h-0.1h-0.1h-0.1h-0.1v0.1l-0.1,0l-0.1,0.1L61,18.9
			c0,0,0,0.1,0,0.1h-0.1l-0.1,0.1L60.7,19.1L60.7,19.1z"/>
		<path class="st30" d="M63.1,19l-0.2,0.1l-0.1,0.1v0.1c0,0,0,0.1,0,0.1c0,0,0.1,0,0.1,0v0v0.1v0.2l0,0v0.1v0.3v0.1l0.1,0.2l0.1,0.1
			l0.2,0.2h0.1h0.2l0.4,0.1l0.2-0.1l0.2-0.2l0.1-0.2l0.1-0.2l0.1-0.2c0-0.1,0-0.2,0-0.3v-0.2v-0.1l0.3-0.1v-0.1l-0.1-0.1v-0.1
			L64.8,19h-0.1l-0.1,0.1l-0.1,0.1l-0.1,0l0,0v0.1v0l0,0c0,0-0.1,0-0.1,0L64,19.2l-0.1-0.1V19l0,0l0.3-0.3l-0.1-0.2l-0.2-0.2l0,0
			l-0.2,0.1l-0.1,0.1v0.1l0,0c0,0,0,0.1,0.1,0.1c0,0,0.1,0.1,0.1,0.1l0,0v0.1l-0.1,0.1l-0.1,0.1l-0.1,0.1h-0.1l-0.1,0
			c0,0,0-0.1,0-0.1L63.3,19V19l-0.1-0.1L63.1,19z"/>
		<path class="st30" d="M65.1,19v0.2v0.2c0,0,0,0.3,0,0.3c0,0.1,0,0.2,0,0.3L65,20.3c0,0.1-0.1,0.1-0.1,0.2l-0.1,0.2l-0.1,0.1
			c0,0,0,0,0,0.1s0.1,0,0.1,0h0.2c0.1,0,0.2-0.1,0.3-0.1h0.1h0.2c0,0,0.1,0,0.1,0h0.1c0,0,0,0.1,0,0.1c0,0,0,0.1,0,0.1v0.1l0,0
			l0.3,0.1V21v-0.2H66c0,0,0.1,0.1,0.1,0.1c0.1,0,0.1,0.1,0.1,0.1c0,0,0.1,0.1,0.1,0.1l0.1,0.1v0.1c0,0,0.1,0,0.1,0s0.2-0.2,0.2-0.2
			c0-0.1,0.1-0.1,0.1-0.2c0-0.1,0.1-0.2,0.1-0.3c0,0,0.1-0.1,0.1-0.1s0.1-0.2,0.1-0.2s0-0.1,0-0.2c0-0.1,0-0.2,0-0.2v-0.2l-0.1-0.1
			l-0.1-0.1l-0.2-0.1l-0.3-0.1v-0.1c0,0,0-0.1,0-0.1c0,0,0-0.1,0-0.1v-0.1v-0.1h0.1l0.1-0.1l-0.1-0.1v-0.1l-0.1,0.1c0,0,0,0,0,0.1
			s-0.1,0-0.1,0s0,0,0,0h-0.2h-0.1h-0.1h-0.2c0,0,0,0-0.1,0c0,0-0.1,0-0.1,0.1h-0.1l0.3,0.1h0.2c0.1,0,0.1,0,0.2,0
			c0.1,0,0.1,0,0.2,0l0,0v0.2v0.1v0v0.1h-0.1h-0.2l-0.1-0.1c-0.1,0-0.1,0-0.2,0l-0.2,0h-0.1"/>
		<line class="st9" x1="65.9" y1="19.3" x2="66.1" y2="19.4"/>
		<line class="st9" x1="61.5" y1="19.4" x2="61.8" y2="19.2"/>
		<path class="st9" d="M61.2,20.9l0.2-0.2c0.1-0.1,0.1-0.1,0.2-0.1l0.4,0h0.1h0.2l0.1,0.1h0.1l-0.2-0.2l-0.2,0c-0.1,0-0.2,0-0.2,0
			l-0.2,0.1h-0.1h-0.1l-0.1,0l-0.2,0.1l-0.1,0.1L61.2,20.9L61.2,20.9z"/>
		<polygon class="st9" points="63.3,19.7 63.3,20.1 64.4,20.1 64.4,19.7 		"/>
		<line class="st9" x1="63.5" y1="19.6" x2="64.3" y2="19.6"/>
		<line class="st9" x1="63.4" y1="20.3" x2="64.4" y2="20.3"/>
		<line class="st9" x1="63.7" y1="20.4" x2="63.7" y2="20.8"/>
		<line class="st9" x1="64" y1="20.4" x2="64" y2="20.8"/>
		<path class="st9" d="M65.2,20.6l0.3-0.1c0.1,0,0.2,0,0.3,0l0.2,0.1l0.2,0.1c0.1,0,0.1,0.1,0.2,0.1c0,0,0,0.1,0.1,0.1l0,0
			c0-0.1,0-0.1,0-0.2l-0.2-0.1l-0.2-0.1c0,0-0.1,0-0.1,0c-0.1,0-0.1,0-0.1,0h-0.1h-0.3h-0.1h-0.1h-0.1l0,0l0,0l0,0V20.6z"/>
		<path class="st32" d="M60.4,17.5v0.6l0.1,0.5l0.2,0.4l0.2-0.1l-0.1-0.4V18l0.3,0.1l0.7,0.1l0.6,0.1h0.9h1.5l1.4-0.2l0.4-0.1
			l0.2-0.1l-0.1,0.6v0.2c0,0-0.1,0.1,0,0.1h0.2l0.3-1.1l0.1-0.2v-0.1H67h-0.1c0,0,0.1,0-0.2,0s-0.3,0-0.3,0h-0.1l0,0l-0.1,0
			l-0.1,0.1l0,0c0.1,0,0.2,0,0.3,0h0.6c0,0,0,0.1,0,0.1c-0.1,0.1-0.2,0.1-0.3,0.1c-0.1,0-0.3,0.1-0.4,0.1c-0.1,0-0.3,0-0.4,0.1
			l-0.3,0h-0.3H65l-0.7,0.1h-0.5c-0.1,0-0.2,0-0.3,0h-1l-0.4,0c0,0-0.3,0-0.3,0L61.3,18L61,17.9l-0.2-0.1h-0.1v-0.2v0H60.4z"/>
		<path class="st33" d="M59.7,17.4l-0.2,0v0.1l0.2,0.1c0.1,0,0.1,0,0.2,0l0.3,0.1l0.2,0.1c0,0,0-0.1,0-0.1s0-0.1,0-0.1l0,0
			c-0.1,0-0.2,0-0.2,0h-0.2h-0.1L59.7,17.4z"/>
		<path class="st34" d="M64.3,18.1l1.4-0.8L66,17l0.2-0.1h0.3l0,0l-0.1,0l-0.2,0.1L66,17.3l-0.2,0.1l-0.2,0.1l-0.2,0.1
			c-0.1,0-0.1,0.1-0.2,0.1L65,18l-0.1,0.1L64.3,18.1z"/>
		<polygon class="st9" points="59.7,17.3 61.4,15.6 61.3,17.6 60.1,17.4 59.7,17.4 		"/>
		<polygon class="st9" points="65,15.6 64.8,16.9 64.8,17.1 66.2,17 66.4,17 65.4,16 65.1,15.6 		"/>
		<polygon class="st34" points="62.5,13.6 62.8,13.7 62.8,13.7 62.8,18.1 62.4,18.1 62.5,13.6 		"/>
		<line class="st9" x1="62.6" y1="14.8" x2="62.8" y2="14.8"/>
		<line class="st9" x1="62.6" y1="15.3" x2="62.8" y2="15.3"/>
		<line class="st9" x1="62.6" y1="16.1" x2="62.8" y2="16.1"/>
		<line class="st9" x1="62.6" y1="16.7" x2="62.8" y2="16.7"/>
		<line class="st9" x1="62.6" y1="17.3" x2="62.7" y2="17.3"/>
		<path class="st34" d="M63.5,12.7l-0.3,0.5l-0.3,0.6L62.8,14v0.4l0.6-0.9l0.1-0.3l0.1-0.1l0-0.2v-0.1L63.5,12.7z"/>
		<line class="st9" x1="63.8" y1="15.3" x2="64.7" y2="16.9"/>
		<line class="st9" x1="63.1" y1="16" x2="64.1" y2="17.5"/>
		<line class="st9" x1="61.8" y1="15.9" x2="61.7" y2="17.6"/>
		<line class="st35" x1="63" y1="20.5" x2="63.3" y2="20.9"/>
	</g>
</g>
</svg>
