<?xml version="1.0" encoding="utf-8"?>
<!-- Generator: Adobe Illustrator 23.0.2, SVG Export Plug-In . SVG Version: 6.00 Build 0)  -->
<svg version="1.1" id="图层_1" xmlns="http://www.w3.org/2000/svg" xmlns:xlink="http://www.w3.org/1999/xlink" x="0px" y="0px"
	 viewBox="0 0 83.2 48.5" style="enable-background:new 0 0 83.2 48.5;" xml:space="preserve">
<style type="text/css">
	.st0{fill:#120065;}
	.st1{fill:#FFFFFF;}
	.st2{fill:#BA0019;}
	.st3{fill:none;stroke:#FBFBFB;stroke-width:0.5;stroke-miterlimit:10;}
	.st4{fill:#006129;stroke:#090909;stroke-width:1.000000e-02;stroke-miterlimit:10;}
	.st5{fill:#F7C600;stroke:#090909;stroke-width:2.000000e-02;stroke-miterlimit:10;}
	.st6{fill:#F7C600;stroke:#02040A;stroke-width:2.000000e-02;stroke-miterlimit:10;}
	.st7{fill:none;stroke:#F7C600;stroke-width:2.000000e-02;stroke-miterlimit:10;}
	.st8{fill:#FF0000;stroke:#050002;stroke-width:2.000000e-02;stroke-miterlimit:10;}
	.st9{fill:#F7C600;stroke:#03030B;stroke-width:2.000000e-02;stroke-miterlimit:10;}
	.st10{fill:none;stroke:#03030B;stroke-width:2.000000e-02;stroke-miterlimit:10;}
	.st11{fill:#FFC6B5;stroke:#090909;stroke-width:2.000000e-02;stroke-miterlimit:10;}
	.st12{fill:#9C5100;stroke:#090909;stroke-width:2.000000e-02;stroke-miterlimit:10;}
	.st13{fill:#EBEBEB;stroke:#090909;stroke-width:2.000000e-02;stroke-miterlimit:10;}
	.st14{fill:none;stroke:#090909;stroke-width:2.000000e-02;stroke-miterlimit:10;}
	.st15{fill:#E0AE9F;stroke:#090909;stroke-width:2.000000e-02;stroke-miterlimit:10;}
	.st16{stroke:#090909;stroke-width:2.000000e-02;stroke-miterlimit:10;}
	.st17{fill:none;stroke:#FAFAFA;stroke-width:0.5;stroke-miterlimit:10;}
	.st18{font-family:'ArialRoundedMTBold';}
	.st19{font-size:3.62px;}
	.st20{font-size:3.6245px;}
	.st21{font-size:3.6173px;}
	.st22{font-size:3.6359px;}
</style>
<g id="Vigin_x5F_Islands_x5F_UK">
	<polygon class="st0" points="41.6,0 41.6,2.3 41.6,6.9 41.6,8.3 41.6,12.5 41.6,13.9 41.6,18.5 41.6,19.3 41.6,20.8 36.9,20.8 
		24.3,20.8 22.9,20.8 18.7,20.8 17.3,20.8 4.7,20.8 3.1,20.8 0,20.8 0,48.5 83.2,48.5 83.2,0 41.6,0 	"/>
	<polygon class="st0" points="4.7,20.8 17.3,20.8 17.3,14.4 	"/>
	<polygon class="st0" points="24.3,20.8 36.9,20.8 24.3,14.4 	"/>
	<polygon class="st0" points="41.6,6.9 41.6,2.3 32.4,6.9 	"/>
	<polygon class="st0" points="0,2.3 0,6.9 9.2,6.9 	"/>
	<polygon class="st0" points="36.9,0 24.3,0 24.3,6.3 	"/>
	<polygon class="st0" points="41.6,18.5 41.6,13.9 32.4,13.9 	"/>
	<polygon class="st0" points="17.3,0 4.7,0 17.3,6.3 	"/>
	<polygon class="st0" points="0,13.9 0,18.5 9.2,13.9 	"/>
	<polygon class="st1" points="17.3,6.9 17.3,6.3 4.7,0 0,0 13.9,6.9 	"/>
	<polygon class="st1" points="24.3,6.9 24.6,6.9 38.5,0 36.9,0 24.3,6.3 	"/>
	<polygon class="st1" points="24.3,13.9 24.3,14.4 36.9,20.8 41.6,20.8 27.7,13.9 	"/>
	<polygon class="st1" points="32.4,6.9 41.6,2.3 41.6,0 27.7,6.9 	"/>
	<polygon class="st1" points="9.2,13.9 0,18.5 0,20.8 13.9,13.9 	"/>
	<polygon class="st1" points="30.8,13.9 41.6,19.2 41.6,18.5 32.4,13.9 	"/>
	<polygon class="st1" points="17.3,13.9 17,13.9 3.1,20.8 4.7,20.8 17.3,14.4 	"/>
	<polygon class="st1" points="10.8,6.9 0,1.5 0,2.3 9.2,6.9 	"/>
	<polygon class="st1" points="18.7,8.3 18.7,0 17.3,0 17.3,6.3 17.3,6.9 13.9,6.9 10.8,6.9 9.2,6.9 0,6.9 0,8.3 	"/>
	<polygon class="st1" points="22.9,8.3 41.6,8.3 41.6,6.9 32.4,6.9 27.7,6.9 24.6,6.9 24.3,6.9 24.3,6.3 24.3,0 22.9,0 	"/>
	<polygon class="st1" points="13.9,13.9 17,13.9 17.3,13.9 17.3,14.4 17.3,20.8 18.7,20.8 18.7,12.5 0,12.5 0,13.9 9.2,13.9 	"/>
	<polygon class="st1" points="22.9,12.5 22.9,20.8 24.3,20.8 24.3,14.4 24.3,13.9 27.7,13.9 30.8,13.9 32.4,13.9 41.6,13.9 
		41.6,12.5 	"/>
	<polygon class="st2" points="18.7,12.5 18.7,20.8 22.9,20.8 22.9,12.5 41.6,12.5 41.6,8.3 22.9,8.3 22.9,0 18.7,0 18.7,8.3 0,8.3 
		0,12.5 	"/>
	<polygon class="st2" points="27.7,13.9 41.6,20.8 41.6,19.2 30.8,13.9 	"/>
	<polygon class="st2" points="13.9,6.9 0,0 0,1.5 10.8,6.9 	"/>
	<polygon class="st2" points="27.7,6.9 41.6,0 38.5,0 24.6,6.9 	"/>
	<polygon class="st2" points="17,13.9 13.9,13.9 0,20.8 3.1,20.8 	"/>
	<path class="st3" d="M52.4,32c0.1,0.3,0.2,0.6,0.4,0.9c0.3,0.5,0.6,0.9,1,1.3c0.4,0.4,0.8,0.7,1.2,1c1.7,1.2,3.1,2.1,3.1,2.1
		c1.2,0.7,0.8,0.3,3.3,1.7c1.2,0.6,1.5,0.8,2,0.8s1-0.2,2.7-1.1c2.4-1.3,2.3-1.2,2.8-1.5c1.1-0.6,1.9-1.2,2.6-1.7
		c0.6-0.4,1.1-0.9,1.6-1.4c0.3-0.3,0.6-0.6,0.8-1c0.2-0.3,0.4-0.7,0.5-1V11.8h-22L52.4,32z"/>
	<path class="st4" d="M52.6,31.8c0.1,0.3,0.2,0.6,0.4,0.9c0.3,0.5,0.6,0.9,1,1.3c0.4,0.4,0.7,0.7,1.1,1c1.7,1.2,3.1,2,3.1,2
		c1.2,0.7,0.7,0.3,3.2,1.7c1.2,0.6,1.4,0.8,1.9,0.8s0.9-0.2,2.6-1.1c2.3-1.3,2.2-1.2,2.8-1.5c0.9-0.5,1.7-1.1,2.6-1.7
		c0.6-0.4,1.1-0.9,1.6-1.4c0.3-0.3,0.6-0.6,0.8-0.9c0.2-0.4,0.4-0.7,0.4-1.1V12.1H52.6V31.8z"/>
	<path class="st5" d="M64.8,34.8l-0.1,0.4l0.1,0.3l0.3,0.3l0.2,0.1c0.1,0,0.2,0,0.3-0.1c0.1-0.1,0.1-0.2,0.2-0.3l0.2-0.4l0.1-0.4
		L66,34.4l-0.5-0.1L64.8,34.8z"/>
	<path class="st5" d="M61.6,34.8L61.4,35l0.1,0.2l-0.4,0L61,35.3v0.1h0.3v0.2c0,0,0.1,0.1,0.2,0.1c0.1,0,0.2,0,0.3-0.1
		c0.1-0.1,0.3-0.2,0.4-0.3c0.2-0.1,0.4-0.1,0.5-0.2l0.3-0.2l0.1-0.4l-0.8-0.1L61.6,34.8z"/>
	<path class="st6" d="M59.5,24.6c0,0.1-0.1,0.2-0.2,0.2c-0.1,0-0.1,0-0.2-0.1c0,0-0.1-0.1-0.1-0.2c0-0.1,0.1-0.2,0.2-0.3
		C59.3,24.3,59.5,24.4,59.5,24.6C59.5,24.5,59.5,24.6,59.5,24.6z"/>
	<line class="st7" x1="59.1" y1="24.8" x2="58.1" y2="26.4"/>
	<line class="st7" x1="59.4" y1="24.7" x2="60.5" y2="26.4"/>
	<polygon class="st8" points="57.5,26.4 57.7,26 57.8,25.7 57.8,25.4 57.7,25.2 57.7,25 57.8,24.8 57.7,24.6 57.6,24.5 57.5,24.4 
		57.4,24.7 57.2,25 57.1,25.2 57.1,25.4 57.2,25.6 57.2,25.9 57.2,26.2 57.1,26.4 57.2,26.4 57.5,26.4 	"/>
	<polygon class="st9" points="57.1,26.4 57,26.4 57,26.6 57.3,26.9 57.6,26.9 57.8,27 57.8,26.8 57.7,26.6 57.7,26.5 57.9,27 
		58.1,27.2 58.3,27.3 58.3,27.6 58.2,27.6 58.3,27.8 60.2,27.8 60.2,27.5 60.1,27.4 60.4,27.3 60.7,27 60.9,26.7 61.1,26.5 
		61.3,26.3 61.6,26.2 61.6,26.4 61.2,26.6 60.9,27 60.8,27.2 61,27.3 61.1,27.2 61.2,26.9 61.4,26.7 61.9,26.4 62,26.2 61.9,26 
		61.7,25.9 61.3,26 61,26.2 60.7,26.3 60.5,26.4 59.9,26.4 59.8,26.4 59.6,26.1 59.5,26 59.4,25.9 59.1,25.9 59,26 58.9,26.2 
		58.8,26.3 58.7,26.4 57.8,26.4 57.6,26.4 	"/>
	<line class="st10" x1="58.4" y1="27.3" x2="60.1" y2="27.3"/>
	<path class="st9" d="M59.5,25.7c0,0.1-0.1,0.2-0.2,0.2c-0.1,0-0.1,0-0.2-0.1c-0.1,0-0.1-0.1-0.1-0.2c0-0.1,0.1-0.2,0.2-0.2
		C59.4,25.4,59.5,25.6,59.5,25.7C59.5,25.7,59.5,25.7,59.5,25.7z"/>
	<path class="st11" d="M62.3,17.6L62,17.9l-0.2,0.4l-0.1,0.2v0.2l-0.2,0.7V20l-0.1,0.5l0,0.1l-0.9,1.2L60,22.5l-0.5,0.7l-0.4,0.5
		L59,23.9v1l0.2,0.4h0.3l0.3-0.4l0.2-0.5L60,24l-0.1-0.3v-0.2l1.1-0.9l0.8-0.8l0.2-0.3l0.2-0.1l0.1-0.7l0.5-1l-0.2-1.1L62.3,17.6z"
		/>
	<path class="st11" d="M62.9,14.3v0.5l-0.2,0.3l-0.2,0.1v0.2h0.3h-0.2v0.2h0.1l0.1,0.1h-0.2v0.1l-0.1,0.2l0.1,0.2
		c0,0,0.1,0.1,0.1,0.1h0.3l0.1,0.1l0.1,0.1l0,0v0.4V17l0.1,0.2l0.2,0.1l0.3-0.1l0.5-0.2l0.2-0.2l-0.1-0.1v-0.3l0.1-1.3l-0.6-1
		l-0.7-0.2L62.9,14.3z"/>
	<path class="st12" d="M62.6,13.7l0.3-0.1H63v-0.3l0.2-0.1l0.2,0.1h0.2l0.2-0.2l0.2-0.1l0.2,0.1l0.2,0.2l0.1,0.1l0.2,0.1l0.4,0.1
		l0.3,0.2l0.3,0.7v0.8h-0.1l0.1,0.2l-0.1,0.2l0.2-0.4l0.2,0.1v0.3l-0.3,0.2l-0.1,0.2l-0.3-0.1l-0.2-0.1h-0.2h-0.1l-0.2-0.1l0.9,0.3
		l-0.2,0.2L65,16.4l-0.1,0.2h-0.2l-0.2-0.1l-0.1-0.3L64.3,16l-0.1-0.1l0.1-0.2l-0.1-0.2v-0.3V15H64l-0.1-0.2c0-0.1,0-0.1,0-0.2
		c0-0.1,0-0.3,0-0.3l-0.2-0.2l-0.1-0.1l-0.2,0.1l-0.3,0.1h-0.4L62.5,14L62.6,13.7L62.6,13.7z"/>
	<path class="st13" d="M63.3,17H63l-0.3,0.3l-0.2,0.3v0.1l-0.1,0.2l-0.1,0.3l-0.1,0.2l-0.1,0.2l-0.3,0.3l-0.2,0.3v0.2l0.1,0.4L62,20
		l0.3,0.1l0.1,0.9l-0.1,0.8l-0.2,0.8l-0.2,0.9l-0.2,0.8l-0.1,0.2v0.1l0.1,0l0.4-0.1l0.1-0.1l-0.3,0.2l-0.1,0.5l-0.2,0.6L61.3,27
		l-0.1,0.9L61,28.8l-0.1,0.9L60.9,30l0.1,0.2l0.2,0.1h0.1v0.8v1.2V33l-0.1,0.3l-0.2,0.3l0.1,0.3l0.1,0.2v0.2v0.3L61,34.7l0.3,0.2
		h0.4l0.3-0.1l0.2,0l0.1-0.1l0.4-0.1h0.2l0.2,0.1l0.1,0.1l0.2,0.1l0.1,0.1l0.3-0.1v-0.5l0.3,0.1v0.5h0.1l0.1,0.1h0.6l0.1-0.2v-0.2
		l0.2,0.2l0.2-0.1l0.3-0.2H66h0.6l0.2-0.1h0.7c0,0,0-0.3,0-0.4s-0.3-0.6-0.3-0.7c0-0.1,0-0.2,0-0.4c0.1-0.1,0.1-0.3,0.1-0.4
		l-0.1-0.4c0,0-0.1-0.6-0.1-0.6s-0.3-0.6-0.3-0.6l-0.1-0.4l-0.2-0.4L66.3,30l0.2,0v-0.5L66.3,29l-0.2-0.8l-0.3-0.7l-0.1-0.7
		l-0.2-0.6v-0.3l-0.1-0.4l-0.2-0.2c0,0-0.1-0.8-0.1-0.8s0-1.7,0-1.7V22l0.1-0.5v-0.4v-0.2l0.1-0.2l-0.2-0.5l-0.1-0.4v-0.5l0.1-0.4
		l0.4-0.4l0.4-0.2V18l-0.3-0.5l-0.3-0.3L65.4,17l-0.2-0.1h-0.3l-0.1,0l-0.4,0.3L64,17.3h-0.3l-0.2-0.2L63.3,17z"/>
	<path class="st11" d="M66.2,18.3l-0.4,0.2l-0.4,0.4l-0.1,0.4V20l0.2,0.5l0.3,0.5l0.1,0.5l-0.1,0.6l-0.7,1.4l-0.4,0.9l-0.3,0.6
		l-0.1,0.3v0.5l0.2,0.3l0.2,0.1l0.4-0.1l0.2-0.3v-0.4V25l0.1-0.5l0.8-1.4l0.7-1v-0.6l-0.1-0.8c0,0-0.1-0.6-0.1-0.7s-0.1-0.5-0.1-0.5
		l-0.2-0.6L66.2,18.3z"/>
	<polyline class="st14" points="64.4,25.6 64.6,25.9 64.6,26.2 64.9,25.6 65.2,25.5 65.3,25.4 65.3,25.4 	"/>
	<polyline class="st14" points="59,24.4 59.2,24.8 59.3,25.2 59.3,25.3 59.5,24.8 59.6,24.4 59.6,24.8 	"/>
	<polygon class="st11" points="61.6,35.1 61.8,35.2 61.6,35.3 61.1,35.3 61,35.3 	"/>
	<polygon class="st11" points="62.1,34.7 62.3,35 62.4,35 62.8,34.8 62.8,34.6 62.3,34.6 	"/>
	<polygon class="st11" points="65.1,35.3 65.1,35.5 65.2,35.6 65.4,35.6 65.6,35.6 65.6,35.4 65.4,35.2 65.3,35.1 	"/>
	<polygon class="st11" points="65.6,34.9 65.4,35 65.4,35.2 65.7,35.4 65.8,35.3 65.8,35.2 	"/>
	<polygon class="st15" points="65.7,34.6 65.6,34.8 65.7,34.9 65.8,35 65.9,34.8 65.9,34.7 	"/>
	<polyline class="st14" points="61.3,34.1 61.5,34.4 61.8,34.4 62.4,34.1 62.7,34 63,34 63.1,34.3 63.1,34.4 	"/>
	<polyline class="st14" points="64.2,33.8 64.2,34.2 64.4,34.4 64.7,34.5 65.1,34.3 65.6,33.8 65.8,33.7 66.4,33.9 66.4,34.1 
		66.6,34.5 	"/>
	<polyline class="st14" points="66.5,33.6 66,33 65.7,32.2 65.5,31.6 65.3,31 65.2,30.6 65.1,30.3 	"/>
	<polyline class="st14" points="62.4,33.7 62.4,32.6 62.4,31.5 62.2,30 	"/>
	<line class="st14" x1="62" y1="33.9" x2="62.1" y2="32.5"/>
	<path class="st14" d="M61.3,30.3l0.7-0.5h0.2l0.1,0.2h0.5l0.3-0.2l0.5,0.1c0,0,0.3,0.1,0.3,0.1h0.4l0.2-0.1
		c0.1-0.1,0.1-0.1,0.2-0.2l0.2,0.1l0.2,0.1h0.3l0.3-0.2h0.1l0.2,0.2V30l-0.5-0.6l-0.5-2.2v-0.8"/>
	<path class="st14" d="M64.4,26.6l0.1,1.8c0,0,0.1,0.9,0.1,1"/>
	<line class="st14" x1="63.4" y1="25.5" x2="63.3" y2="29.5"/>
	<line class="st14" x1="62.2" y1="24.7" x2="62.1" y2="26.8"/>
	<polyline class="st14" points="62,24.6 61.8,26.4 61.6,27.9 61.6,28.7 	"/>
	<line class="st14" x1="62.2" y1="24.6" x2="63.3" y2="24.7"/>
	<line class="st14" x1="63.6" y1="24.5" x2="64.2" y2="24.7"/>
	<polyline class="st14" points="64.6,24 64.4,23.4 64.4,23.1 64.3,22.5 	"/>
	<polyline class="st14" points="62.5,22.3 62.4,23.3 62.2,24.1 	"/>
	<polyline class="st14" points="62.9,22 63.4,22.4 63.7,22.4 63.9,22 64.2,22 64.9,22.3 	"/>
	<path class="st14" d="M63.6,20.7c0,0-0.1,0.5-0.1,0.5c0.1,0.2,0.2,0.4,0.2,0.6l0.3,0.2"/>
	<polyline class="st14" points="63,20.6 63,21.3 63,21.8 	"/>
	<polyline class="st14" points="62.5,21 62.9,20.5 63.2,19.8 	"/>
	<polyline class="st14" points="63.5,19.9 63.8,20.6 64.4,21.2 64.7,21.6 64.8,21.6 	"/>
	<polyline class="st14" points="65.8,17.9 65.4,18.3 65.3,18.7 	"/>
	<polyline class="st14" points="65.5,17.6 65.1,17.9 65.1,17.5 64.4,17.9 63.9,18.5 	"/>
	<polyline class="st14" points="63.7,19 63.5,19.5 63.7,19.8 64.1,20 64.4,20.1 64.8,20.1 65.3,19.9 	"/>
	<polyline class="st14" points="62.9,17.4 62.8,17.9 62.9,18.3 63,18.6 63,19.1 63,19.3 62.8,19 62.6,18.6 62.5,18.1 	"/>
	<polygon class="st16" points="63,14.8 63.3,14.8 63.3,15 	"/>
	<polyline class="st14" points="64.2,13.8 64.3,14.2 64.8,14.3 64.7,14.6 64.9,14.8 	"/>
	<polyline class="st14" points="64.3,15.7 63.9,16.1 63.6,16.2 	"/>
	<path class="st6" d="M57.1,13.3c0,0.1-0.1,0.2-0.2,0.2c-0.1,0-0.1,0-0.2-0.1c-0.1,0-0.1-0.1-0.1-0.2c0-0.1,0.1-0.2,0.2-0.2
		C57,13,57.1,13.1,57.1,13.3C57.1,13.3,57.1,13.3,57.1,13.3z"/>
	<line class="st7" x1="56.7" y1="13.5" x2="55.6" y2="15"/>
	<line class="st7" x1="57" y1="13.4" x2="58.1" y2="15"/>
	<polygon class="st8" points="55.1,15 55.3,14.7 55.4,14.4 55.4,14.1 55.3,13.9 55.3,13.7 55.3,13.5 55.3,13.3 55.1,13.2 55,13 
		54.9,13.4 54.8,13.7 54.7,13.8 54.7,14.1 54.8,14.3 54.8,14.5 54.8,14.9 54.7,15 54.7,15.1 55.1,15.1 	"/>
	<polygon class="st9" points="54.7,15.1 54.6,15 54.6,15.3 54.9,15.5 55.1,15.6 55.4,15.6 55.3,15.5 55.3,15.2 55.3,15.1 55.4,15.7 
		55.6,15.8 55.8,16 55.9,16.2 55.8,16.3 55.8,16.5 57.8,16.5 57.8,16.2 57.7,16.1 58,15.9 58.3,15.7 58.5,15.4 58.7,15.2 58.9,15 
		59.1,14.9 59.2,15 58.8,15.3 58.5,15.6 58.4,15.8 58.5,15.9 58.7,15.9 58.8,15.6 59,15.4 59.5,15.1 59.5,14.9 59.5,14.7 59.3,14.6 
		58.9,14.7 58.6,14.9 58.3,15 58,15.1 57.5,15.1 57.3,15 57.2,14.8 57,14.6 57,14.6 56.7,14.6 56.6,14.7 56.5,14.9 56.4,15 
		56.3,15.1 55.3,15.1 55.2,15.1 	"/>
	<line class="st10" x1="55.9" y1="16" x2="57.6" y2="16"/>
	<path class="st9" d="M57.1,14.3c0,0.1-0.1,0.2-0.2,0.2c-0.1,0-0.1,0-0.2-0.1c-0.1,0-0.1-0.1-0.1-0.2c0-0.1,0.1-0.2,0.2-0.2
		C57,14.1,57.1,14.2,57.1,14.3z"/>
	<path class="st6" d="M57,17c0,0.1-0.1,0.2-0.2,0.2c-0.1,0-0.1,0-0.2,0c-0.1-0.1-0.1-0.2,0-0.3s0.2-0.1,0.3,0C57,16.9,57,16.9,57,17
		z"/>
	<line class="st7" x1="56.6" y1="17.2" x2="55.5" y2="18.7"/>
	<line class="st7" x1="56.9" y1="17.1" x2="58" y2="18.7"/>
	<polygon class="st8" points="55,18.7 55.2,18.4 55.3,18.1 55.3,17.8 55.2,17.6 55.2,17.4 55.3,17.2 55.2,17 55.1,16.8 55,16.7 
		54.9,17.1 54.7,17.4 54.6,17.5 54.6,17.8 54.7,18 54.7,18.2 54.7,18.6 54.6,18.7 54.7,18.8 55,18.8 	"/>
	<polygon class="st9" points="54.6,18.8 54.5,18.7 54.5,19 54.8,19.2 55.1,19.3 55.3,19.3 55.3,19.2 55.2,18.9 55.2,18.8 55.3,19.4 
		55.5,19.5 55.8,19.7 55.8,19.9 55.7,20 55.7,20.2 57.7,20.2 57.7,19.9 57.6,19.8 57.9,19.6 58.2,19.4 58.4,19.1 58.6,18.9 
		58.8,18.7 59.1,18.6 59.1,18.7 58.7,19 58.4,19.3 58.3,19.5 58.4,19.6 58.6,19.6 58.7,19.3 58.9,19.1 59.4,18.8 59.4,18.6 
		59.4,18.4 59.2,18.3 58.8,18.4 58.5,18.5 58.2,18.7 58,18.8 57.4,18.8 57.2,18.7 57.1,18.5 57,18.3 56.9,18.3 56.6,18.3 56.5,18.4 
		56.4,18.6 56.3,18.7 56.2,18.8 55.3,18.8 55.1,18.8 	"/>
	<line class="st10" x1="55.9" y1="19.7" x2="57.5" y2="19.7"/>
	<path class="st9" d="M57,18c0,0.1-0.1,0.2-0.2,0.2c-0.1,0-0.1,0-0.2-0.1c0,0-0.1-0.1-0.1-0.2c0-0.1,0.1-0.2,0.2-0.2
		C56.9,17.8,57,17.9,57,18C57,18,57,18,57,18z"/>
	<path class="st6" d="M57,20.6c0,0.1-0.1,0.2-0.2,0.2c-0.1,0-0.1,0-0.2,0c-0.1-0.1-0.1-0.2,0-0.3s0.2-0.1,0.3,0
		C57,20.4,57,20.5,57,20.6z"/>
	<line class="st7" x1="56.6" y1="20.8" x2="55.5" y2="22.3"/>
	<line class="st7" x1="56.9" y1="20.7" x2="58" y2="22.3"/>
	<polygon class="st8" points="55,22.3 55.1,22 55.3,21.7 55.3,21.4 55.1,21.2 55.1,21 55.2,20.8 55.2,20.6 55,20.5 54.9,20.3 
		54.8,20.7 54.7,21 54.5,21.2 54.5,21.4 54.6,21.6 54.7,21.9 54.7,22.2 54.6,22.3 54.6,22.4 55,22.4 	"/>
	<polygon class="st9" points="54.6,22.4 54.5,22.3 54.5,22.6 54.8,22.8 55,22.9 55.3,22.9 55.2,22.8 55.2,22.5 55.2,22.5 55.3,23 
		55.5,23.1 55.7,23.3 55.8,23.5 55.7,23.6 55.7,23.8 57.7,23.8 57.7,23.5 57.5,23.4 57.8,23.3 58.1,23 58.4,22.7 58.6,22.5 
		58.8,22.3 59,22.2 59.1,22.3 58.7,22.6 58.3,23 58.3,23.1 58.4,23.2 58.5,23.2 58.7,22.9 58.9,22.7 59.3,22.4 59.4,22.2 59.4,22 
		59.2,21.9 58.8,22 58.5,22.2 58.2,22.3 57.9,22.4 57.4,22.4 57.2,22.3 57.1,22.1 56.9,21.9 56.9,21.9 56.6,21.9 56.5,22 56.4,22.2 
		56.3,22.3 56.2,22.4 55.2,22.4 55.1,22.4 	"/>
	<line class="st10" x1="55.8" y1="23.3" x2="57.5" y2="23.3"/>
	<path class="st9" d="M57,21.7c0,0.1-0.1,0.2-0.2,0.2c-0.1,0-0.1,0-0.2-0.1c-0.1,0-0.1-0.1-0.1-0.2c0-0.1,0.1-0.2,0.2-0.2
		C56.9,21.4,57,21.5,57,21.7C57,21.7,57,21.7,57,21.7z"/>
	<path class="st6" d="M56.7,27.8c0,0.1-0.1,0.2-0.2,0.2c-0.1,0-0.1,0-0.2-0.1c-0.1,0-0.1-0.1-0.1-0.2c0-0.1,0.1-0.2,0.2-0.2
		C56.6,27.5,56.7,27.7,56.7,27.8C56.7,27.8,56.7,27.8,56.7,27.8z"/>
	<line class="st7" x1="56.3" y1="28" x2="55.3" y2="29.5"/>
	<line class="st7" x1="56.6" y1="27.9" x2="57.7" y2="29.5"/>
	<polygon class="st8" points="54.7,29.5 54.9,29.2 55,28.9 55,28.6 54.9,28.4 54.9,28.2 55,28 54.9,27.8 54.8,27.7 54.7,27.5 
		54.6,27.9 54.4,28.2 54.3,28.4 54.3,28.6 54.4,28.8 54.4,29.1 54.4,29.4 54.3,29.5 54.4,29.6 54.7,29.6 	"/>
	<polygon class="st9" points="54.3,29.6 54.2,29.5 54.2,29.8 54.5,30 54.8,30.1 55,30.1 55,30 54.9,29.7 54.9,29.7 55,30.2 
		55.3,30.4 55.5,30.5 55.5,30.8 55.4,30.8 55.4,31 57.4,31 57.4,30.7 57.3,30.6 57.6,30.5 57.9,30.2 58.1,29.9 58.3,29.7 58.5,29.5 
		58.8,29.4 58.8,29.5 58.4,29.8 58.1,30.2 58,30.4 58.1,30.4 58.3,30.4 58.4,30.1 58.6,29.9 59.1,29.6 59.1,29.4 59.1,29.2 
		58.9,29.1 58.5,29.2 58.2,29.4 57.9,29.5 57.7,29.6 57.1,29.6 57,29.5 56.8,29.3 56.7,29.1 56.6,29.1 56.3,29.1 56.2,29.2 
		56.1,29.4 56,29.5 55.9,29.6 55,29.6 54.8,29.6 	"/>
	<line class="st10" x1="55.6" y1="30.5" x2="57.3" y2="30.5"/>
	<path class="st9" d="M56.7,28.9c0,0.1-0.1,0.2-0.2,0.2c-0.1,0-0.1,0-0.2-0.1c-0.1,0-0.1-0.1-0.1-0.2c0-0.1,0.1-0.2,0.2-0.2
		C56.6,28.6,56.7,28.7,56.7,28.9C56.7,28.9,56.7,28.9,56.7,28.9z"/>
	<path class="st6" d="M56.7,31.6c0,0.1-0.1,0.2-0.2,0.2c-0.1,0-0.1,0-0.2,0c-0.1,0-0.1-0.1-0.1-0.2c0-0.1,0.1-0.2,0.2-0.2
		C56.6,31.4,56.7,31.5,56.7,31.6C56.7,31.6,56.7,31.6,56.7,31.6z"/>
	<line class="st7" x1="56.3" y1="31.8" x2="55.3" y2="33.4"/>
	<line class="st7" x1="56.6" y1="31.8" x2="57.7" y2="33.4"/>
	<polygon class="st8" points="54.8,33.4 54.9,33.1 55,32.8 55,32.4 54.9,32.2 54.9,32.1 55,31.8 54.9,31.7 54.8,31.5 54.7,31.4 
		54.6,31.7 54.4,32 54.3,32.2 54.3,32.4 54.4,32.6 54.4,32.9 54.4,33.2 54.3,33.4 54.4,33.5 54.7,33.5 	"/>
	<polygon class="st9" points="54.3,33.5 54.2,33.4 54.2,33.6 54.5,33.9 54.8,34 55,34 55,33.9 54.9,33.6 54.9,33.5 55.1,34.1 
		55.3,34.2 55.5,34.3 55.5,34.6 55.4,34.7 55.5,34.8 57.4,34.8 57.4,34.6 57.3,34.4 57.6,34.3 57.9,34 58.1,33.8 58.3,33.5 
		58.5,33.3 58.8,33.3 58.8,33.4 58.5,33.7 58.1,34 58,34.2 58.2,34.3 58.3,34.3 58.4,34 58.6,33.7 59.1,33.5 59.2,33.3 59.1,33 
		58.9,33 58.5,33 58.2,33.2 57.9,33.3 57.7,33.5 57.2,33.5 57,33.4 56.8,33.2 56.7,33 56.6,32.9 56.4,32.9 56.3,33 56.1,33.2 
		56.1,33.4 55.9,33.5 55,33.4 54.8,33.5 	"/>
	<line class="st10" x1="55.6" y1="34.4" x2="57.3" y2="34.4"/>
	<path class="st9" d="M56.7,32.7c0,0.1-0.1,0.2-0.2,0.2c0,0-0.1,0-0.2,0c-0.1,0-0.1-0.1-0.1-0.2c0-0.1,0.1-0.2,0.2-0.2
		C56.6,32.5,56.7,32.6,56.7,32.7z"/>
	<path class="st6" d="M70.2,13.3c0,0.1-0.1,0.2-0.2,0.2l0,0c-0.1,0-0.1,0-0.2-0.1c-0.1,0-0.1-0.1-0.1-0.2c0-0.1,0.1-0.2,0.2-0.2
		C70.1,13,70.2,13.1,70.2,13.3C70.2,13.3,70.2,13.3,70.2,13.3z"/>
	<line class="st7" x1="69.8" y1="13.5" x2="68.8" y2="15"/>
	<line class="st7" x1="70.1" y1="13.4" x2="71.3" y2="15"/>
	<polygon class="st8" points="68.3,15 68.4,14.7 68.5,14.4 68.5,14.1 68.4,13.9 68.4,13.7 68.5,13.5 68.4,13.3 68.3,13.2 68.2,13 
		68.1,13.4 67.9,13.7 67.8,13.8 67.8,14.1 67.9,14.3 67.9,14.5 67.9,14.9 67.8,15 67.9,15.1 68.2,15.1 	"/>
	<polygon class="st9" points="67.8,15.1 67.7,15 67.7,15.3 68,15.5 68.3,15.6 68.5,15.6 68.5,15.5 68.4,15.2 68.4,15.1 68.6,15.7 
		68.8,15.8 69,16 69,16.2 68.9,16.3 69,16.5 70.9,16.5 70.9,16.2 70.8,16.1 71.1,15.9 71.4,15.7 71.6,15.4 71.8,15.2 72.1,15 
		72.3,14.9 72.3,15 72,15.3 71.6,15.6 71.6,15.8 71.7,15.9 71.8,15.9 71.9,15.6 72.2,15.4 72.6,15.1 72.7,14.9 72.6,14.7 72.4,14.6 
		72.1,14.7 71.7,14.9 71.4,15 71.2,15.1 70.7,15.1 70.5,15 70.4,14.8 70.2,14.6 70.1,14.6 69.9,14.6 69.8,14.7 69.6,14.9 69.6,15 
		69.4,15.1 68.5,15.1 68.3,15.1 	"/>
	<line class="st10" x1="69.1" y1="16" x2="70.8" y2="16"/>
	<path class="st9" d="M70.2,14.3c0,0.1-0.1,0.2-0.2,0.2l0,0c-0.1,0-0.1,0-0.2-0.1c-0.1,0-0.1-0.1-0.1-0.2c0-0.1,0.1-0.2,0.2-0.2
		C70.1,14.1,70.2,14.2,70.2,14.3C70.2,14.3,70.2,14.3,70.2,14.3z"/>
	<path class="st6" d="M70.1,17c0,0.1-0.1,0.2-0.2,0.2l0,0c-0.1,0-0.1,0-0.2,0c-0.1,0-0.1-0.1-0.1-0.2c0-0.1,0.1-0.2,0.2-0.2
		C70,16.8,70.1,16.9,70.1,17z"/>
	<line class="st7" x1="69.7" y1="17.2" x2="68.6" y2="18.7"/>
	<line class="st7" x1="70" y1="17.1" x2="71.1" y2="18.7"/>
	<polygon class="st8" points="68.1,18.7 68.3,18.4 68.4,18.1 68.4,17.8 68.3,17.6 68.3,17.4 68.3,17.2 68.3,17 68.1,16.8 68,16.7 
		67.9,17.1 67.8,17.4 67.7,17.5 67.7,17.8 67.8,18 67.8,18.2 67.8,18.6 67.7,18.7 67.7,18.8 68.1,18.8 	"/>
	<polygon class="st9" points="67.7,18.8 67.6,18.7 67.6,19 67.9,19.2 68.1,19.3 68.4,19.3 68.3,19.2 68.3,18.9 68.3,18.8 68.4,19.4 
		68.6,19.5 68.8,19.7 68.9,19.9 68.8,20 68.8,20.2 70.8,20.2 70.8,19.9 70.7,19.8 71,19.6 71.3,19.4 71.5,19.1 71.7,18.9 71.9,18.7 
		72.1,18.6 72.2,18.7 71.8,19 71.4,19.3 71.4,19.5 71.5,19.6 71.7,19.6 71.8,19.3 72,19.1 72.5,18.8 72.5,18.6 72.5,18.4 72.3,18.3 
		71.9,18.4 71.6,18.5 71.3,18.7 71.1,18.8 70.5,18.8 70.3,18.7 70.2,18.5 70.1,18.3 70,18.3 69.7,18.3 69.6,18.4 69.5,18.6 
		69.4,18.7 69.3,18.8 68.3,18.8 68.2,18.8 	"/>
	<line class="st10" x1="68.9" y1="19.7" x2="70.6" y2="19.7"/>
	<path class="st9" d="M70.1,18c0,0.1-0.1,0.2-0.2,0.2l0,0c-0.1,0-0.1,0-0.2-0.1c0,0-0.1-0.1-0.1-0.2c0-0.1,0.1-0.2,0.2-0.2
		C70,17.8,70.1,17.9,70.1,18z"/>
	<path class="st6" d="M70,20.6c0,0.1-0.1,0.2-0.2,0.2l0,0c-0.1,0-0.1,0-0.2-0.1c-0.1,0-0.1-0.1-0.1-0.2c0-0.1,0.1-0.2,0.2-0.2
		C69.9,20.4,70,20.5,70,20.6z"/>
	<line class="st7" x1="69.6" y1="20.9" x2="68.5" y2="22.4"/>
	<line class="st7" x1="69.9" y1="20.8" x2="71" y2="22.4"/>
	<polygon class="st8" points="68,22.4 68.2,22.1 68.3,21.8 68.3,21.5 68.1,21.3 68.1,21.1 68.2,20.9 68.2,20.7 68,20.5 67.9,20.4 
		67.8,20.8 67.7,21.1 67.5,21.2 67.5,21.5 67.6,21.7 67.7,21.9 67.7,22.3 67.6,22.4 67.6,22.5 68,22.5 	"/>
	<polygon class="st9" points="67.6,22.5 67.5,22.4 67.5,22.7 67.8,22.9 68,23 68.3,23 68.2,22.9 68.2,22.6 68.2,22.5 68.3,23.1 
		68.5,23.2 68.7,23.4 68.8,23.6 68.7,23.7 68.7,23.9 70.7,23.9 70.7,23.6 70.5,23.5 70.8,23.3 71.1,23.1 71.4,22.8 71.6,22.6 
		71.8,22.4 72,22.3 72.1,22.4 71.7,22.7 71.3,23 71.3,23.2 71.4,23.3 71.6,23.3 71.7,23 71.9,22.8 72.3,22.5 72.4,22.3 72.4,22.1 
		72.2,22 71.8,22.1 71.5,22.2 71.2,22.4 70.9,22.5 70.4,22.5 70.2,22.4 70.1,22.2 69.9,22 69.9,22 69.6,22 69.5,22.1 69.4,22.3 
		69.3,22.4 69.2,22.5 68.2,22.4 68.1,22.5 	"/>
	<line class="st10" x1="68.8" y1="23.4" x2="70.5" y2="23.4"/>
	<path class="st9" d="M70,21.7c0,0.1-0.1,0.2-0.2,0.2l0,0c-0.1,0-0.1,0-0.2-0.1c-0.1,0-0.1-0.1-0.1-0.2c0-0.1,0.1-0.2,0.2-0.2
		C69.9,21.5,70,21.6,70,21.7z"/>
	<path class="st6" d="M70.1,24.3c0,0.1-0.1,0.2-0.2,0.2l0,0c-0.1,0-0.1,0-0.2-0.1c-0.1,0-0.1-0.1-0.1-0.2c0-0.1,0.1-0.2,0.2-0.2l0,0
		C70,24.1,70.1,24.2,70.1,24.3C70.1,24.3,70.1,24.3,70.1,24.3z"/>
	<line class="st7" x1="69.7" y1="24.5" x2="68.6" y2="26.1"/>
	<line class="st7" x1="70" y1="24.5" x2="71.1" y2="26.1"/>
	<polygon class="st8" points="68.1,26.1 68.3,25.7 68.4,25.4 68.4,25.1 68.3,24.9 68.3,24.8 68.3,24.5 68.3,24.4 68.1,24.2 68,24.1 
		67.9,24.4 67.8,24.7 67.7,24.9 67.7,25.1 67.8,25.3 67.8,25.6 67.8,25.9 67.7,26.1 67.7,26.1 68.1,26.1 	"/>
	<polygon class="st9" points="67.7,26.1 67.6,26.1 67.6,26.3 67.9,26.6 68.1,26.7 68.4,26.7 68.3,26.5 68.3,26.3 68.3,26.2 
		68.4,26.8 68.6,26.9 68.8,27 68.9,27.3 68.8,27.4 68.8,27.5 70.8,27.5 70.8,27.3 70.7,27.1 71,27 71.3,26.7 71.5,26.4 71.7,26.2 
		71.9,26 72.1,26 72.2,26.1 71.8,26.3 71.4,26.7 71.4,26.9 71.5,27 71.7,26.9 71.8,26.6 72,26.4 72.5,26.1 72.5,26 72.5,25.7 
		72.3,25.6 71.9,25.7 71.6,25.9 71.3,26 71.1,26.1 70.5,26.1 70.3,26.1 70.2,25.9 70.1,25.7 70,25.6 69.7,25.6 69.6,25.7 69.5,25.9 
		69.4,26.1 69.3,26.1 68.3,26.1 68.2,26.1 	"/>
	<line class="st10" x1="68.9" y1="27.1" x2="70.6" y2="27.1"/>
	<path class="st9" d="M70.1,25.4c0,0.1-0.1,0.2-0.2,0.2l0,0c-0.1,0-0.1,0-0.2-0.1c-0.1,0-0.1-0.1-0.1-0.2c0-0.1,0.1-0.2,0.2-0.2
		C70,25.2,70.1,25.3,70.1,25.4z"/>
	<path class="st6" d="M70.1,27.9c0,0.1-0.1,0.2-0.2,0.2l0,0c-0.1,0-0.1,0-0.2,0c-0.1-0.1-0.1-0.2,0-0.3s0.2-0.1,0.3,0
		C70,27.8,70.1,27.9,70.1,27.9z"/>
	<line class="st7" x1="69.7" y1="28.2" x2="68.7" y2="29.7"/>
	<line class="st7" x1="70" y1="28.1" x2="71.1" y2="29.7"/>
	<polygon class="st8" points="68.1,29.7 68.3,29.4 68.4,29.1 68.4,28.8 68.3,28.6 68.3,28.4 68.3,28.2 68.3,28 68.2,27.8 68.1,27.7 
		68,28.1 67.8,28.4 67.7,28.5 67.7,28.8 67.8,29 67.8,29.2 67.8,29.6 67.7,29.7 67.8,29.8 68.1,29.8 	"/>
	<polygon class="st9" points="67.7,29.8 67.6,29.7 67.6,29.9 67.9,30.2 68.2,30.3 68.4,30.3 68.4,30.2 68.3,29.9 68.3,29.8 
		68.4,30.4 68.7,30.5 68.9,30.7 68.9,30.9 68.8,31 68.8,31.2 70.8,31.2 70.8,30.9 70.7,30.7 71,30.6 71.3,30.4 71.5,30.1 71.7,29.9 
		71.9,29.7 72.2,29.6 72.2,29.7 71.8,30 71.5,30.3 71.4,30.5 71.5,30.6 71.7,30.6 71.8,30.3 72,30.1 72.5,29.8 72.5,29.6 72.5,29.4 
		72.3,29.3 71.9,29.4 71.6,29.5 71.3,29.7 71.1,29.8 70.5,29.8 70.3,29.7 70.2,29.5 70.1,29.3 70,29.3 69.7,29.3 69.6,29.4 
		69.5,29.6 69.4,29.7 69.3,29.8 68.4,29.7 68.2,29.8 	"/>
	<line class="st10" x1="68.9" y1="30.7" x2="70.7" y2="30.7"/>
	<path class="st9" d="M70.1,29c0,0.1-0.1,0.2-0.2,0.2l0,0c-0.1,0-0.1,0-0.2-0.1c-0.1,0-0.1-0.1-0.1-0.2c0-0.1,0.1-0.2,0.2-0.2
		C70,28.8,70.1,28.9,70.1,29C70.1,29,70.1,29,70.1,29z"/>
	<path class="st6" d="M70.1,31.6c0,0.1-0.1,0.2-0.2,0.2l0,0c-0.1,0-0.1,0-0.2,0c-0.1,0-0.1-0.1-0.1-0.2c0-0.1,0.1-0.2,0.2-0.2
		C70,31.4,70.1,31.5,70.1,31.6C70.1,31.6,70.1,31.6,70.1,31.6z"/>
	<line class="st7" x1="69.7" y1="31.8" x2="68.7" y2="33.4"/>
	<line class="st7" x1="70" y1="31.8" x2="71.1" y2="33.4"/>
	<polygon class="st8" points="68.2,33.4 68.3,33.1 68.4,32.8 68.4,32.4 68.3,32.2 68.3,32.1 68.4,31.8 68.3,31.7 68.2,31.5 
		68.1,31.4 68,31.7 67.8,32 67.7,32.2 67.7,32.4 67.8,32.6 67.8,32.9 67.8,33.2 67.7,33.4 67.8,33.5 68.1,33.5 	"/>
	<polygon class="st9" points="67.7,33.5 67.6,33.4 67.6,33.6 67.9,33.9 68.2,34 68.4,34 68.4,33.9 68.3,33.6 68.3,33.5 68.5,34.1 
		68.7,34.2 68.9,34.3 68.9,34.6 68.8,34.7 68.8,34.8 70.8,34.8 70.8,34.6 70.7,34.4 71,34.3 71.3,34 71.5,33.8 71.7,33.5 71.9,33.3 
		72.2,33.3 72.2,33.4 71.8,33.7 71.5,34 71.4,34.2 71.6,34.3 71.7,34.3 71.8,34 72,33.7 72.5,33.5 72.6,33.3 72.5,33 72.3,33 
		71.9,33 71.6,33.2 71.3,33.3 71.1,33.5 70.5,33.5 70.4,33.4 70.3,33.2 70.1,33 70,32.9 69.8,32.9 69.6,33 69.5,33.2 69.5,33.4 
		69.3,33.5 68.4,33.4 68.2,33.5 	"/>
	<line class="st10" x1="69" y1="34.4" x2="70.7" y2="34.4"/>
	<path class="st9" d="M70.1,32.7c0,0.1-0.1,0.2-0.2,0.2l0,0c0,0-0.1,0-0.2,0c-0.1,0-0.1-0.1-0.1-0.2c0-0.1,0.1-0.2,0.2-0.2
		C70,32.5,70.1,32.6,70.1,32.7C70.1,32.8,70.1,32.8,70.1,32.7L70.1,32.7z"/>
	<path class="st17" d="M51.9,34c-0.4,0.5-0.8,1-1.2,1.5c-0.5,0.5-1.1,1-1.6,1.5c-0.1,0.4-0.1,0.8,0,1.2c0.2,0.7,0.7,1.2,1.4,1.3
		c0.1,0,0.2,0,0.3,0c0.6-0.1,0.7-0.7,1.1-0.7c0.2,0,0.3,0.2,0.8,0.6c0.4,0.3,0.8,0.6,1.2,0.9c0.7,0.5,1.5,1,2.2,1.4
		c1.6,0.9,3.4,1.5,5.2,1.8c1.1,0.2,2.2,0.2,3.3,0.1c1.9-0.1,3.7-0.6,5.4-1.4c1.9-0.8,3.5-2,5-3.4c0.3,0.4,0.7,0.7,1.2,0.8
		c1,0.1,1.7-1,1.7-1.7c0-0.2,0-0.5-0.1-0.7c-0.1-0.2-0.3-0.4-0.5-0.5c0,0-0.2-0.2-0.8-0.7s-0.4-0.6-1-1.2s-0.7-0.7-1-0.7
		s-0.4,0.1-1.2,0.9c-0.6,0.6-0.8,0.8-1.1,1.2c-0.4,0.4-0.8,0.7-1.3,1c-1.1,0.8-2.3,1.4-3.6,1.8c-1.9,0.7-3.9,0.9-5.8,0.6
		c-2.6-0.6-4.9-1.8-6.8-3.7c-0.3-0.4-0.8-0.7-1.1-1c-0.2-0.4-0.6-0.6-1-0.8C52.3,34,52.1,34,51.9,34z"/>
	<path class="st5" d="M52.1,34.2c-0.4,0.6-0.9,1.1-1.4,1.6c-0.5,0.5-1,0.9-1.5,1.2c-0.1,0.2,0,1.4,0.4,1.6c0.7,0.4,0.3,0.3,1,0.4
		c0.1,0,0.1-0.1,0.1-0.1c0.6-0.1,0.8-0.6,1.2-0.7c0.2,0,0.7,0.4,1.1,0.8s0.9,0.8,1.3,1.1c0.7,0.5,1.4,0.9,2.2,1.3
		c1.5,0.8,3.1,1.3,4.8,1.6c1.1,0.1,2.1,0.2,3.2,0.1c1.7-0.1,3.4-0.5,5-1.2c2-0.9,3.8-2.2,5.4-3.7c0.2,0.4,0.5,0.7,0.9,0.9
		c0.9,0.4,1.2-0.8,1.6-1.1c0.1-0.2,0.1-0.4,0-0.6c-0.1-0.2-0.2-0.4-0.4-0.5c0,0-0.2-0.1-0.8-0.6s-0.7-0.9-1.3-1.4s-0.9-0.7-1.1-0.3
		c-0.1,0.2-0.1,0.2-0.8,1c-0.6,0.6-0.9,0.8-1.3,1.1c-0.4,0.4-0.8,0.7-1.3,1c-1.1,0.7-2.3,1.3-3.5,1.8c-1.8,0.6-3.8,0.8-5.7,0.5
		c-2.5-0.5-4.8-1.7-6.7-3.4c-0.3-0.3-0.8-0.6-1.1-1s-0.8-1-1.3-1.1C52.3,34.2,52.2,34.2,52.1,34.2z"/>
	<text transform="matrix(0.9701 0.7231 -0.5976 0.8018 53.1993 38.8701)" class="st18 st19">V</text>
	<text transform="matrix(1.0763 0.5529 -0.4569 0.8895 55.8696 40.7595)" class="st18 st19">I</text>
	<text transform="matrix(1.16 0.33 -0.28 0.96 57.3511 41.6004)" class="st18 st19">G</text>
	<text transform="matrix(1.2052 0.108 -8.924197e-02 0.996 60.9896 42.5097)" class="st18 st19">I</text>
	<text transform="matrix(1.2085 -5.992514e-02 4.993762e-02 0.9988 62.5597 42.67)" class="st18 st20">L</text>
	<text transform="matrix(1.1709 -0.2802 0.2402 0.9707 65.4504 42.5405)" class="st18 st21">A</text>
	<text transform="matrix(1.106 -0.4908 0.4056 0.914 68.4194 41.8097)" class="st18 st19">T</text>
	<text transform="matrix(0.9857 -0.6969 0.5775 0.8164 71.2003 40.5503)" class="st18 st22">E</text>
	<polyline class="st14" points="52,38.3 51.6,38 50.4,36.7 49.9,36.6 49.4,36.9 49.2,37.2 49.2,37.8 49.5,38.5 49.9,38.8 50.4,39.1 
		51,38.9 51.3,38.6 51.3,38.2 51.1,38 50.2,37.6 50.8,37.3 	"/>
	<polyline class="st14" points="75,38 76,37 76.6,36.6 76.8,36.6 77.1,36.7 77.6,37.3 77.5,37.9 77.3,38.3 76.5,39 76.2,39.1 
		75.5,38.8 75.4,38.7 75.6,37.9 75.9,37.8 76.3,37.6 75.9,37.3 	"/>
</g>
</svg>
